0, 0, Header, 0, 1, 480
1, 0, Start_track
1, 0, Title_t, "MIDI"
1, 0, Instrument_name_t, "Brooklyn"
1, 0, Time_signature, 4, 2, 24, 8
1, 0, Key_signature, 0, "major"
1, 0, SMPTE_offset, 33, 0, 0, 0, 0
1, 0, Tempo, 434783
1, 3, Note_on_c, 9, 55, 60
1, 7, Note_on_c, 9, 51, 55
1, 10, Note_on_c, 9, 36, 64
1, 13, Control_c, 9, 4, 90
1, 115, Note_off_c, 9, 55, 64
1, 118, Note_off_c, 9, 51, 64
1, 120, Note_off_c, 9, 36, 64
1, 189, Control_c, 9, 4, 87
1, 211, Note_on_c, 9, 36, 57
1, 221, Control_c, 9, 4, 90
1, 238, Note_on_c, 9, 51, 31
1, 322, Note_off_c, 9, 36, 64
1, 348, Control_c, 9, 4, 58
1, 348, Note_off_c, 9, 51, 64
1, 382, Control_c, 9, 4, 0
1, 445, Control_c, 9, 4, 76
1, 446, Note_on_c, 9, 44, 77
1, 467, Note_on_c, 9, 51, 54
1, 475, Note_on_c, 9, 38, 93
1, 481, Control_c, 9, 4, 90
1, 558, Note_off_c, 9, 44, 64
1, 578, Note_off_c, 9, 51, 64
1, 586, Note_off_c, 9, 38, 64
1, 592, Control_c, 9, 4, 74
1, 624, Control_c, 9, 4, 26
1, 666, Control_c, 9, 4, 77
1, 666, Note_on_c, 9, 44, 52
1, 702, Control_c, 9, 4, 90
1, 704, Note_on_c, 9, 51, 42
1, 779, Note_off_c, 9, 44, 64
1, 814, Control_c, 9, 4, 57
1, 816, Note_off_c, 9, 51, 64
1, 828, Note_on_c, 9, 38, 33
1, 849, Control_c, 9, 4, 0
1, 908, Control_c, 9, 4, 76
1, 908, Note_on_c, 9, 44, 77
1, 939, Note_off_c, 9, 38, 64
1, 940, Note_on_c, 9, 51, 46
1, 944, Control_c, 9, 4, 90
1, 971, Note_on_c, 9, 44, 0
1, 971, Note_on_c, 9, 51, 0
1, 1066, Note_on_c, 9, 38, 33
1, 1097, Control_c, 9, 4, 42
1, 1131, Control_c, 9, 4, 78
1, 1131, Note_on_c, 9, 44, 47
1, 1163, Note_on_c, 9, 36, 59
1, 1167, Control_c, 9, 4, 90
1, 1168, Note_on_c, 9, 51, 42
1, 1177, Note_off_c, 9, 38, 64
1, 1243, Note_off_c, 9, 44, 64
1, 1274, Note_off_c, 9, 36, 64
1, 1280, Note_off_c, 9, 51, 64
1, 1287, Control_c, 9, 4, 58
1, 1318, Control_c, 9, 4, 0
1, 1389, Control_c, 9, 4, 76
1, 1390, Note_on_c, 9, 44, 77
1, 1422, Note_on_c, 9, 51, 64
1, 1425, Control_c, 9, 4, 90
1, 1447, Note_on_c, 9, 40, 114
1, 1502, Note_off_c, 9, 44, 64
1, 1534, Note_off_c, 9, 51, 64
1, 1558, Note_off_c, 9, 40, 64
1, 1583, Control_c, 9, 4, 62
1, 1622, Control_c, 9, 4, 80
1, 1623, Note_on_c, 9, 44, 17
1, 1658, Control_c, 9, 4, 90
1, 1679, Note_on_c, 9, 51, 44
1, 1735, Note_off_c, 9, 44, 64
1, 1776, Control_c, 9, 4, 58
1, 1790, Note_off_c, 9, 51, 64
1, 1797, Note_on_c, 9, 38, 30
1, 1808, Control_c, 9, 4, 0
1, 1879, Control_c, 9, 4, 78
1, 1879, Note_on_c, 9, 44, 72
1, 1908, Note_off_c, 9, 38, 64
1, 1913, Note_on_c, 9, 51, 42
1, 1915, Control_c, 9, 4, 90
1, 1915, Note_on_c, 9, 36, 55
1, 1992, Note_off_c, 9, 44, 64
1, 2025, Note_off_c, 9, 36, 64
1, 2025, Note_off_c, 9, 51, 64
1, 2037, Control_c, 9, 4, 74
1, 2073, Control_c, 9, 4, 11
1, 2112, Control_c, 9, 4, 77
1, 2113, Note_on_c, 9, 44, 60
1, 2148, Control_c, 9, 4, 90
1, 2150, Note_on_c, 9, 36, 62
1, 2163, Note_on_c, 9, 51, 41
1, 2225, Note_off_c, 9, 44, 64
1, 2261, Note_off_c, 9, 36, 64
1, 2274, Note_off_c, 9, 51, 64
1, 2279, Control_c, 9, 4, 57
1, 2314, Control_c, 9, 4, 0
1, 2381, Control_c, 9, 4, 76
1, 2381, Note_on_c, 9, 44, 80
1, 2404, Note_on_c, 9, 38, 94
1, 2405, Note_on_c, 9, 51, 51
1, 2416, Control_c, 9, 4, 90
1, 2493, Note_off_c, 9, 44, 64
1, 2515, Note_off_c, 9, 38, 64
1, 2515, Note_off_c, 9, 51, 64
1, 2531, Control_c, 9, 4, 74
1, 2565, Control_c, 9, 4, 10
1, 2609, Control_c, 9, 4, 77
1, 2610, Note_on_c, 9, 44, 67
1, 2645, Control_c, 9, 4, 90
1, 2647, Note_on_c, 9, 51, 45
1, 2722, Note_off_c, 9, 44, 64
1, 2758, Note_off_c, 9, 51, 64
1, 2761, Control_c, 9, 4, 41
1, 2767, Note_on_c, 9, 38, 32
1, 2791, Control_c, 9, 4, 0
1, 2861, Control_c, 9, 4, 78
1, 2862, Note_on_c, 9, 44, 72
1, 2878, Note_off_c, 9, 38, 64
1, 2882, Note_on_c, 9, 51, 43
1, 2896, Control_c, 9, 4, 90
1, 2973, Note_off_c, 9, 44, 64
1, 2993, Note_off_c, 9, 51, 64
1, 2995, Note_on_c, 9, 38, 24
1, 3018, Control_c, 9, 4, 76
1, 3058, Control_c, 9, 4, 30
1, 3074, Note_on_c, 9, 36, 47
1, 3093, Control_c, 9, 4, 78
1, 3094, Note_on_c, 9, 44, 35
1, 3106, Note_off_c, 9, 38, 64
1, 3122, Note_on_c, 9, 51, 36
1, 3128, Control_c, 9, 4, 90
1, 3185, Note_off_c, 9, 36, 64
1, 3205, Note_off_c, 9, 44, 64
1, 3219, Note_on_c, 9, 36, 54
1, 3233, Note_off_c, 9, 51, 64
1, 3254, Control_c, 9, 4, 57
1, 3285, Control_c, 9, 4, 0
1, 3331, Note_off_c, 9, 36, 64
1, 3347, Note_on_c, 9, 38, 89
1, 3356, Control_c, 9, 4, 76
1, 3356, Note_on_c, 9, 44, 77
1, 3360, Note_on_c, 9, 51, 54
1, 3391, Control_c, 9, 4, 90
1, 3458, Note_off_c, 9, 38, 64
1, 3468, Note_off_c, 9, 44, 64
1, 3471, Note_off_c, 9, 51, 64
1, 3531, Control_c, 9, 4, 27
1, 3573, Control_c, 9, 4, 77
1, 3574, Note_on_c, 9, 44, 52
1, 3607, Note_on_c, 9, 51, 39
1, 3608, Control_c, 9, 4, 90
1, 3685, Note_off_c, 9, 44, 64
1, 3710, Note_on_c, 9, 38, 37
1, 3718, Note_off_c, 9, 51, 64
1, 3744, Control_c, 9, 4, 42
1, 3747, Note_on_c, 9, 38, 41
1, 3747, Note_off_c, 9, 38, 64
1, 3776, Control_c, 9, 4, 0
1, 3796, Note_on_c, 9, 38, 33
1, 3796, Note_off_c, 9, 38, 64
1, 3822, Note_off_c, 9, 38, 64
1, 3823, Control_c, 9, 4, 78
1, 3823, Note_on_c, 9, 44, 72
1, 3836, Note_on_c, 9, 36, 57
1, 3837, Note_on_c, 9, 51, 45
1, 3846, Note_on_c, 9, 38, 23
1, 3858, Control_c, 9, 4, 90
1, 3859, Note_off_c, 9, 38, 64
1, 3935, Note_off_c, 9, 44, 64
1, 3947, Note_off_c, 9, 36, 64
1, 3947, Note_off_c, 9, 51, 64
1, 3981, Control_c, 9, 4, 76
1, 4011, Control_c, 9, 4, 49
1, 4042, Control_c, 9, 4, 79
1, 4043, Note_on_c, 9, 44, 22
1, 4072, Note_on_c, 9, 36, 62
1, 4078, Control_c, 9, 4, 90
1, 4080, Note_on_c, 9, 51, 45
1, 4154, Note_off_c, 9, 44, 64
1, 4184, Note_off_c, 9, 36, 64
1, 4191, Note_off_c, 9, 51, 64
1, 4207, Control_c, 9, 4, 57
1, 4238, Control_c, 9, 4, 0
1, 4299, Control_c, 9, 4, 78
1, 4300, Note_on_c, 9, 44, 80
1, 4317, Note_on_c, 9, 37, 88
1, 4321, Note_on_c, 9, 51, 50
1, 4335, Control_c, 9, 4, 90
1, 4412, Note_off_c, 9, 44, 64
1, 4428, Note_off_c, 9, 37, 64
1, 4433, Note_off_c, 9, 51, 64
1, 4490, Control_c, 9, 4, 26
1, 4528, Control_c, 9, 4, 77
1, 4528, Note_on_c, 9, 44, 57
1, 4563, Control_c, 9, 4, 90
1, 4564, Note_on_c, 9, 51, 36
1, 4639, Note_off_c, 9, 44, 64
1, 4668, Note_on_c, 9, 38, 86
1, 4676, Note_off_c, 9, 51, 64
1, 4695, Control_c, 9, 4, 58
1, 4729, Control_c, 9, 4, 0
1, 4779, Note_off_c, 9, 38, 64
1, 4783, Control_c, 9, 4, 78
1, 4783, Note_on_c, 9, 44, 75
1, 4806, Note_on_c, 9, 51, 49
1, 4818, Control_c, 9, 4, 90
1, 4894, Note_off_c, 9, 44, 64
1, 4905, Note_on_c, 9, 38, 27
1, 4917, Note_off_c, 9, 51, 64
1, 4965, Control_c, 9, 4, 26
1, 5006, Control_c, 9, 4, 77
1, 5007, Note_on_c, 9, 44, 57
1, 5017, Note_off_c, 9, 38, 64
1, 5038, Note_on_c, 9, 36, 66
1, 5040, Note_on_c, 9, 51, 47
1, 5042, Control_c, 9, 4, 90
1, 5118, Note_off_c, 9, 44, 64
1, 5149, Note_off_c, 9, 36, 64
1, 5151, Note_off_c, 9, 51, 64
1, 5154, Control_c, 9, 4, 74
1, 5190, Control_c, 9, 4, 0
1, 5248, Control_c, 9, 4, 78
1, 5248, Note_on_c, 9, 44, 77
1, 5269, Note_on_c, 9, 51, 39
1, 5284, Control_c, 9, 4, 90
1, 5360, Note_off_c, 9, 44, 64
1, 5380, Note_off_c, 9, 51, 64
1, 5440, Control_c, 9, 4, 26
1, 5478, Control_c, 9, 4, 78
1, 5479, Note_on_c, 9, 44, 52
1, 5507, Note_on_c, 9, 51, 51
1, 5514, Control_c, 9, 4, 90
1, 5518, Note_on_c, 9, 38, 94
1, 5591, Note_off_c, 9, 44, 64
1, 5618, Note_off_c, 9, 51, 64
1, 5628, Note_off_c, 9, 38, 64
1, 5633, Control_c, 9, 4, 57
1, 5666, Control_c, 9, 4, 0
1, 5730, Control_c, 9, 4, 78
1, 5730, Note_on_c, 9, 44, 77
1, 5748, Note_on_c, 9, 51, 43
1, 5765, Control_c, 9, 4, 90
1, 5841, Note_off_c, 9, 44, 64
1, 5845, Note_on_c, 9, 38, 38
1, 5859, Note_off_c, 9, 51, 64
1, 5896, Control_c, 9, 4, 42
1, 5933, Control_c, 9, 4, 5
1, 5956, Note_off_c, 9, 38, 64
1, 5963, Control_c, 9, 4, 79
1, 5964, Note_on_c, 9, 44, 60
1, 5971, Note_on_c, 9, 51, 41
1, 5975, Note_on_c, 9, 36, 45
1, 5998, Control_c, 9, 4, 90
1, 6074, Note_off_c, 9, 44, 64
1, 6083, Note_off_c, 9, 51, 64
1, 6086, Note_off_c, 9, 36, 64
1, 6100, Note_on_c, 9, 36, 48
1, 6109, Control_c, 9, 4, 57
1, 6143, Control_c, 9, 4, 0
1, 6210, Note_on_c, 9, 51, 53
1, 6211, Note_off_c, 9, 36, 64
1, 6216, Note_on_c, 9, 38, 99
1, 6221, Control_c, 9, 4, 78
1, 6222, Note_on_c, 9, 44, 80
1, 6257, Control_c, 9, 4, 90
1, 6322, Note_off_c, 9, 51, 64
1, 6327, Note_off_c, 9, 38, 64
1, 6334, Note_off_c, 9, 44, 64
1, 6381, Control_c, 9, 4, 59
1, 6411, Control_c, 9, 4, 13
1, 6448, Control_c, 9, 4, 77
1, 6448, Note_on_c, 9, 44, 55
1, 6451, Note_on_c, 9, 51, 45
1, 6483, Control_c, 9, 4, 90
1, 6556, Note_on_c, 9, 38, 88
1, 6560, Note_off_c, 9, 44, 64
1, 6562, Note_off_c, 9, 51, 64
1, 6591, Control_c, 9, 4, 73
1, 6626, Control_c, 9, 4, 0
1, 6667, Note_off_c, 9, 38, 64
1, 6687, Note_on_c, 9, 51, 58
1, 6700, Control_c, 9, 4, 77
1, 6700, Note_on_c, 9, 44, 80
1, 6736, Control_c, 9, 4, 90
1, 6799, Note_off_c, 9, 51, 64
1, 6812, Note_off_c, 9, 44, 64
1, 6813, Note_on_c, 9, 38, 37
1, 6867, Note_on_c, 9, 38, 20
1, 6867, Note_off_c, 9, 38, 64
1, 6874, Control_c, 9, 4, 43
1, 6915, Control_c, 9, 4, 78
1, 6916, Note_on_c, 9, 44, 40
1, 6923, Note_on_c, 9, 52, 61
1, 6924, Note_on_c, 9, 36, 71
1, 6926, Note_off_c, 9, 38, 64
1, 6950, Control_c, 9, 4, 90
1, 7027, Note_off_c, 9, 44, 64
1, 7034, Note_off_c, 9, 52, 64
1, 7036, Note_off_c, 9, 36, 64
1, 7064, Control_c, 9, 4, 58
1, 7095, Control_c, 9, 4, 0
1, 7160, Control_c, 9, 4, 78
1, 7160, Note_on_c, 9, 44, 80
1, 7163, Note_on_c, 9, 51, 49
1, 7195, Control_c, 9, 4, 90
1, 7271, Note_off_c, 9, 44, 64
1, 7274, Note_off_c, 9, 51, 64
1, 7309, Control_c, 9, 4, 74
1, 7346, Control_c, 9, 4, 11
1, 7383, Control_c, 9, 4, 79
1, 7383, Note_on_c, 9, 44, 62
1, 7400, Note_on_c, 9, 38, 105
1, 7401, Note_on_c, 9, 51, 56
1, 7418, Control_c, 9, 4, 90
1, 7495, Note_off_c, 9, 44, 64
1, 7511, Note_off_c, 9, 38, 64
1, 7513, Note_off_c, 9, 51, 64
1, 7527, Control_c, 9, 4, 57
1, 7563, Control_c, 9, 4, 0
1, 7620, Control_c, 9, 4, 77
1, 7620, Note_on_c, 9, 44, 77
1, 7651, Note_on_c, 9, 51, 51
1, 7656, Control_c, 9, 4, 90
1, 7657, Note_on_c, 9, 36, 50
1, 7733, Note_off_c, 9, 44, 64
1, 7735, Note_on_c, 9, 38, 34
1, 7762, Note_off_c, 9, 51, 64
1, 7769, Note_off_c, 9, 36, 64
1, 7780, Control_c, 9, 4, 58
1, 7810, Control_c, 9, 4, 13
1, 7844, Control_c, 9, 4, 78
1, 7845, Note_on_c, 9, 44, 55
1, 7846, Note_off_c, 9, 38, 64
1, 7879, Control_c, 9, 4, 90
1, 7879, Note_on_c, 9, 51, 45
1, 7898, Note_on_c, 9, 36, 63
1, 7957, Note_off_c, 9, 44, 64
1, 7991, Note_off_c, 9, 51, 64
1, 8003, Control_c, 9, 4, 57
1, 8010, Note_off_c, 9, 36, 64
1, 8035, Control_c, 9, 4, 0
1, 8103, Control_c, 9, 4, 78
1, 8103, Note_on_c, 9, 44, 80
1, 8138, Control_c, 9, 4, 90
1, 8139, Note_on_c, 9, 51, 50
1, 8147, Note_on_c, 9, 38, 101
1, 8215, Note_off_c, 9, 44, 64
1, 8250, Note_off_c, 9, 51, 64
1, 8259, Note_off_c, 9, 38, 64
1, 8292, Control_c, 9, 4, 25
1, 8335, Control_c, 9, 4, 79
1, 8335, Note_on_c, 9, 44, 45
1, 8371, Control_c, 9, 4, 90
1, 8400, Note_on_c, 9, 51, 48
1, 8447, Note_off_c, 9, 44, 64
1, 8506, Control_c, 9, 4, 57
1, 8512, Note_off_c, 9, 51, 64
1, 8519, Note_on_c, 9, 38, 92
1, 8542, Control_c, 9, 4, 0
1, 8607, Control_c, 9, 4, 78
1, 8607, Note_on_c, 9, 44, 77
1, 8630, Note_off_c, 9, 38, 64
1, 8640, Note_on_c, 9, 51, 49
1, 8642, Control_c, 9, 4, 90
1, 8718, Note_off_c, 9, 44, 64
1, 8752, Note_off_c, 9, 51, 64
1, 8759, Control_c, 9, 4, 74
1, 8767, Note_on_c, 9, 38, 33
1, 8797, Control_c, 9, 4, 11
1, 8834, Control_c, 9, 4, 77
1, 8834, Note_on_c, 9, 44, 50
1, 8835, Note_on_c, 9, 36, 49
1, 8869, Control_c, 9, 4, 90
1, 8879, Note_off_c, 9, 38, 64
1, 8883, Note_on_c, 9, 51, 38
1, 8946, Note_off_c, 9, 36, 64
1, 8946, Note_off_c, 9, 44, 64
1, 8958, Note_on_c, 9, 36, 48
1, 8975, Control_c, 9, 4, 74
1, 8994, Note_off_c, 9, 51, 64
1, 9012, Control_c, 9, 4, 0
1, 9069, Note_off_c, 9, 36, 64
1, 9088, Control_c, 9, 4, 77
1, 9089, Note_on_c, 9, 44, 87
1, 9096, Note_on_c, 9, 38, 100
1, 9106, Note_on_c, 9, 51, 62
1, 9123, Control_c, 9, 4, 90
1, 9200, Note_off_c, 9, 44, 64
1, 9207, Note_off_c, 9, 38, 64
1, 9217, Note_off_c, 9, 51, 64
1, 9253, Control_c, 9, 4, 40
1, 9288, Control_c, 9, 4, 1
1, 9322, Control_c, 9, 4, 78
1, 9322, Note_on_c, 9, 44, 65
1, 9357, Control_c, 9, 4, 90
1, 9357, Note_on_c, 9, 51, 46
1, 9434, Note_off_c, 9, 44, 64
1, 9467, Control_c, 9, 4, 57
1, 9468, Note_on_c, 9, 38, 37
1, 9468, Note_off_c, 9, 51, 64
1, 9500, Control_c, 9, 4, 0
1, 9506, Note_on_c, 9, 38, 33
1, 9506, Note_off_c, 9, 38, 64
1, 9532, Note_on_c, 9, 38, 30
1, 9532, Note_off_c, 9, 38, 64
1, 9570, Control_c, 9, 4, 77
1, 9570, Note_on_c, 9, 44, 80
1, 9576, Note_on_c, 9, 38, 23
1, 9576, Note_off_c, 9, 38, 64
1, 9580, Note_off_c, 9, 38, 64
1, 9598, Note_on_c, 9, 51, 60
1, 9599, Note_on_c, 9, 36, 55
1, 9606, Control_c, 9, 4, 90
1, 9682, Note_off_c, 9, 44, 64
1, 9710, Note_off_c, 9, 36, 64
1, 9710, Note_off_c, 9, 51, 64
1, 9732, Control_c, 9, 4, 58
1, 9765, Control_c, 9, 4, 13
1, 9799, Control_c, 9, 4, 78
1, 9800, Note_on_c, 9, 44, 52
1, 9826, Note_on_c, 9, 51, 47
1, 9827, Note_on_c, 9, 36, 63
1, 9835, Control_c, 9, 4, 90
1, 9912, Note_off_c, 9, 44, 64
1, 9937, Note_off_c, 9, 36, 64
1, 9937, Note_off_c, 9, 51, 64
1, 9951, Control_c, 9, 4, 57
1, 9983, Control_c, 9, 4, 0
1, 10057, Control_c, 9, 4, 78
1, 10058, Note_on_c, 9, 44, 82
1, 10079, Note_on_c, 9, 38, 106
1, 10079, Note_on_c, 9, 51, 59
1, 10092, Control_c, 9, 4, 90
1, 10169, Note_off_c, 9, 44, 64
1, 10190, Note_off_c, 9, 38, 64
1, 10190, Note_off_c, 9, 51, 64
1, 10215, Control_c, 9, 4, 75
1, 10250, Control_c, 9, 4, 28
1, 10283, Control_c, 9, 4, 78
1, 10283, Note_on_c, 9, 44, 40
1, 10319, Control_c, 9, 4, 90
1, 10333, Note_on_c, 9, 51, 37
1, 10395, Note_off_c, 9, 44, 64
1, 10418, Control_c, 9, 4, 74
1, 10439, Note_on_c, 9, 38, 103
1, 10444, Note_off_c, 9, 51, 64
1, 10453, Control_c, 9, 4, 0
1, 10534, Control_c, 9, 4, 77
1, 10534, Note_on_c, 9, 44, 72
1, 10550, Note_off_c, 9, 38, 64
1, 10570, Control_c, 9, 4, 90
1, 10576, Note_on_c, 9, 51, 53
1, 10646, Note_off_c, 9, 44, 64
1, 10688, Note_off_c, 9, 51, 64
1, 10692, Note_on_c, 9, 38, 33
1, 10693, Control_c, 9, 4, 74
1, 10726, Control_c, 9, 4, 28
1, 10756, Control_c, 9, 4, 78
1, 10757, Note_on_c, 9, 44, 42
1, 10774, Note_on_c, 9, 36, 46
1, 10791, Control_c, 9, 4, 90
1, 10803, Note_off_c, 9, 38, 64
1, 10815, Note_on_c, 9, 51, 42
1, 10868, Note_off_c, 9, 44, 64
1, 10886, Note_off_c, 9, 36, 64
1, 10907, Control_c, 9, 4, 57
1, 10914, Note_on_c, 9, 36, 59
1, 10926, Note_off_c, 9, 51, 64
1, 10941, Control_c, 9, 4, 0
1, 11013, Control_c, 9, 4, 78
1, 11014, Note_on_c, 9, 44, 82
1, 11025, Note_off_c, 9, 36, 64
1, 11041, Note_on_c, 9, 38, 103
1, 11049, Control_c, 9, 4, 90
1, 11052, Note_on_c, 9, 51, 63
1, 11125, Note_off_c, 9, 44, 64
1, 11153, Note_off_c, 9, 38, 64
1, 11163, Note_off_c, 9, 51, 64
1, 11198, Control_c, 9, 4, 26
1, 11241, Control_c, 9, 4, 78
1, 11241, Note_on_c, 9, 44, 40
1, 11276, Control_c, 9, 4, 90
1, 11287, Note_on_c, 9, 51, 41
1, 11354, Note_off_c, 9, 44, 64
1, 11397, Note_on_c, 9, 38, 36
1, 11399, Note_off_c, 9, 51, 64
1, 11403, Control_c, 9, 4, 57
1, 11437, Control_c, 9, 4, 0
1, 11441, Note_on_c, 9, 38, 32
1, 11441, Note_off_c, 9, 38, 64
1, 11468, Note_on_c, 9, 38, 33
1, 11468, Note_off_c, 9, 38, 64
1, 11508, Note_off_c, 9, 38, 64
1, 11510, Control_c, 9, 4, 76
1, 11510, Note_on_c, 9, 44, 77
1, 11530, Note_on_c, 9, 36, 62
1, 11530, Note_on_c, 9, 51, 60
1, 11545, Control_c, 9, 4, 90
1, 11622, Note_off_c, 9, 44, 64
1, 11641, Note_off_c, 9, 36, 64
1, 11641, Note_off_c, 9, 51, 64
1, 11668, Control_c, 9, 4, 58
1, 11702, Control_c, 9, 4, 14
1, 11738, Control_c, 9, 4, 78
1, 11739, Note_on_c, 9, 44, 50
1, 11766, Note_on_c, 9, 36, 59
1, 11771, Note_on_c, 9, 51, 49
1, 11774, Control_c, 9, 4, 90
1, 11850, Note_off_c, 9, 44, 64
1, 11877, Note_off_c, 9, 36, 64
1, 11882, Note_off_c, 9, 51, 64
1, 11894, Control_c, 9, 4, 57
1, 11928, Control_c, 9, 4, 0
1, 11996, Control_c, 9, 4, 77
1, 11997, Note_on_c, 9, 44, 82
1, 12016, Note_on_c, 9, 38, 109
1, 12020, Note_on_c, 9, 51, 63
1, 12031, Control_c, 9, 4, 90
1, 12108, Note_off_c, 9, 44, 64
1, 12128, Note_off_c, 9, 38, 64
1, 12131, Note_off_c, 9, 51, 64
1, 12149, Control_c, 9, 4, 74
1, 12182, Control_c, 9, 4, 10
1, 12223, Control_c, 9, 4, 77
1, 12224, Note_on_c, 9, 44, 62
1, 12259, Control_c, 9, 4, 90
1, 12267, Note_on_c, 9, 51, 40
1, 12335, Note_off_c, 9, 44, 64
1, 12369, Control_c, 9, 4, 74
1, 12370, Note_on_c, 9, 38, 102
1, 12378, Note_off_c, 9, 51, 64
1, 12404, Control_c, 9, 4, 0
1, 12475, Control_c, 9, 4, 76
1, 12476, Note_on_c, 9, 44, 77
1, 12482, Note_off_c, 9, 38, 64
1, 12503, Note_on_c, 9, 51, 56
1, 12511, Control_c, 9, 4, 90
1, 12588, Note_off_c, 9, 44, 64
1, 12614, Note_off_c, 9, 51, 64
1, 12624, Note_on_c, 9, 38, 22
1, 12634, Control_c, 9, 4, 73
1, 12671, Control_c, 9, 4, 10
1, 12701, Control_c, 9, 4, 77
1, 12701, Note_on_c, 9, 44, 62
1, 12726, Note_on_c, 9, 36, 73
1, 12735, Note_off_c, 9, 38, 64
1, 12736, Control_c, 9, 4, 90
1, 12739, Note_on_c, 9, 51, 52
1, 12813, Note_off_c, 9, 44, 64
1, 12837, Note_off_c, 9, 36, 64
1, 12849, Note_off_c, 9, 51, 64
1, 12852, Control_c, 9, 4, 58
1, 12884, Control_c, 9, 4, 0
1, 12949, Control_c, 9, 4, 78
1, 12950, Note_on_c, 9, 44, 77
1, 12970, Note_on_c, 9, 51, 49
1, 12984, Control_c, 9, 4, 90
1, 13061, Note_off_c, 9, 44, 64
1, 13081, Note_off_c, 9, 51, 64
1, 13141, Control_c, 9, 4, 26
1, 13177, Control_c, 9, 4, 79
1, 13177, Note_on_c, 9, 44, 50
1, 13204, Note_on_c, 9, 38, 115
1, 13211, Note_on_c, 9, 51, 67
1, 13213, Control_c, 9, 4, 90
1, 13289, Note_off_c, 9, 44, 64
1, 13315, Note_off_c, 9, 38, 64
1, 13322, Note_off_c, 9, 51, 64
1, 13334, Control_c, 9, 4, 56
1, 13365, Control_c, 9, 4, 0
1, 13429, Control_c, 9, 4, 77
1, 13429, Note_on_c, 9, 44, 77
1, 13446, Note_on_c, 9, 51, 48
1, 13465, Control_c, 9, 4, 90
1, 13542, Note_off_c, 9, 44, 64
1, 13557, Note_on_c, 9, 38, 38
1, 13557, Note_off_c, 9, 51, 64
1, 13623, Control_c, 9, 4, 25
1, 13654, Control_c, 9, 4, 78
1, 13655, Note_on_c, 9, 44, 47
1, 13666, Note_on_c, 9, 51, 39
1, 13668, Note_off_c, 9, 38, 64
1, 13673, Note_on_c, 9, 36, 42
1, 13690, Control_c, 9, 4, 90
1, 13767, Note_off_c, 9, 44, 64
1, 13777, Note_off_c, 9, 51, 64
1, 13785, Note_off_c, 9, 36, 64
1, 13794, Note_on_c, 9, 51, 39
1, 13799, Control_c, 9, 4, 58
1, 13805, Note_on_c, 9, 36, 55
1, 13830, Control_c, 9, 4, 0
1, 13900, Control_c, 9, 4, 76
1, 13901, Note_on_c, 9, 44, 75
1, 13905, Note_off_c, 9, 51, 64
1, 13912, Note_on_c, 9, 38, 102
1, 13916, Note_on_c, 9, 51, 56
1, 13916, Note_off_c, 9, 36, 64
1, 13935, Control_c, 9, 4, 90
1, 14012, Note_off_c, 9, 44, 64
1, 14024, Note_off_c, 9, 38, 64
1, 14027, Note_off_c, 9, 51, 64
1, 14087, Control_c, 9, 4, 26
1, 14121, Control_c, 9, 4, 78
1, 14122, Note_on_c, 9, 44, 37
1, 14157, Control_c, 9, 4, 90
1, 14163, Note_on_c, 9, 51, 46
1, 14234, Note_off_c, 9, 44, 64
1, 14263, Note_on_c, 9, 38, 103
1, 14274, Note_off_c, 9, 51, 64
1, 14288, Control_c, 9, 4, 58
1, 14324, Control_c, 9, 4, 0
1, 14374, Control_c, 9, 4, 78
1, 14374, Note_on_c, 9, 44, 75
1, 14374, Note_off_c, 9, 38, 64
1, 14397, Note_on_c, 9, 51, 50
1, 14410, Control_c, 9, 4, 90
1, 14487, Note_off_c, 9, 44, 64
1, 14508, Note_off_c, 9, 51, 64
1, 14523, Note_on_c, 9, 38, 16
1, 14548, Control_c, 9, 4, 58
1, 14586, Control_c, 9, 4, 79
1, 14587, Note_on_c, 9, 44, 20
1, 14614, Note_on_c, 9, 36, 87
1, 14621, Control_c, 9, 4, 90
1, 14624, Note_on_c, 9, 52, 55
1, 14635, Note_off_c, 9, 38, 64
1, 14698, Note_off_c, 9, 44, 64
1, 14726, Note_off_c, 9, 36, 64
1, 14735, Note_off_c, 9, 52, 64
1, 14745, Control_c, 9, 4, 74
1, 14781, Control_c, 9, 4, 0
1, 14815, Note_on_c, 9, 38, 8
1, 14845, Control_c, 9, 4, 78
1, 14845, Note_on_c, 9, 44, 82
1, 14868, Note_on_c, 9, 51, 49
1, 14880, Control_c, 9, 4, 90
1, 14926, Note_off_c, 9, 38, 64
1, 14957, Note_off_c, 9, 44, 64
1, 14979, Note_off_c, 9, 51, 64
1, 15008, Control_c, 9, 4, 58
1, 15039, Control_c, 9, 4, 14
1, 15074, Control_c, 9, 4, 78
1, 15075, Note_on_c, 9, 44, 57
1, 15088, Note_on_c, 9, 38, 105
1, 15098, Note_on_c, 9, 51, 52
1, 15110, Control_c, 9, 4, 90
1, 15187, Note_off_c, 9, 44, 64
1, 15199, Note_off_c, 9, 38, 64
1, 15209, Note_off_c, 9, 51, 64
1, 15223, Control_c, 9, 4, 57
1, 15254, Control_c, 9, 4, 0
1, 15318, Control_c, 9, 4, 78
1, 15318, Note_on_c, 9, 44, 75
1, 15335, Note_on_c, 9, 36, 60
1, 15349, Note_on_c, 9, 51, 54
1, 15353, Control_c, 9, 4, 90
1, 15407, Note_on_c, 9, 38, 33
1, 15430, Note_off_c, 9, 44, 64
1, 15446, Note_off_c, 9, 36, 64
1, 15461, Note_off_c, 9, 51, 64
1, 15498, Control_c, 9, 4, 58
1, 15518, Note_off_c, 9, 38, 64
1, 15538, Control_c, 9, 4, 80
1, 15538, Note_on_c, 9, 44, 35
1, 15573, Control_c, 9, 4, 90
1, 15575, Note_on_c, 9, 36, 60
1, 15583, Note_on_c, 9, 51, 38
1, 15649, Note_off_c, 9, 44, 64
1, 15687, Note_off_c, 9, 36, 64
1, 15695, Note_off_c, 9, 51, 64
1, 15710, Control_c, 9, 4, 58
1, 15744, Control_c, 9, 4, 0
1, 15808, Control_c, 9, 4, 78
1, 15808, Note_on_c, 9, 44, 85
1, 15820, Note_on_c, 9, 38, 97
1, 15823, Note_on_c, 9, 51, 70
1, 15843, Control_c, 9, 4, 90
1, 15920, Note_off_c, 9, 44, 64
1, 15932, Note_off_c, 9, 38, 64
1, 15934, Note_off_c, 9, 51, 64
1, 15995, Control_c, 9, 4, 26
1, 16037, Control_c, 9, 4, 79
1, 16037, Note_on_c, 9, 44, 57
1, 16072, Control_c, 9, 4, 90
1, 16072, Note_on_c, 9, 51, 38
1, 16148, Note_off_c, 9, 44, 64
1, 16175, Control_c, 9, 4, 74
1, 16184, Note_on_c, 9, 38, 99
1, 16184, Note_off_c, 9, 51, 64
1, 16207, Control_c, 9, 4, 0
1, 16281, Control_c, 9, 4, 78
1, 16281, Note_on_c, 9, 44, 72
1, 16295, Note_off_c, 9, 38, 64
1, 16306, Note_on_c, 9, 51, 52
1, 16317, Control_c, 9, 4, 90
1, 16393, Note_off_c, 9, 44, 64
1, 16417, Note_off_c, 9, 51, 64
1, 16435, Note_on_c, 9, 38, 27
1, 16436, Control_c, 9, 4, 74
1, 16474, Control_c, 9, 4, 33
1, 16506, Control_c, 9, 4, 80
1, 16506, Note_on_c, 9, 36, 47
1, 16506, Note_on_c, 9, 44, 30
1, 16541, Control_c, 9, 4, 90
1, 16546, Note_off_c, 9, 38, 64
1, 16550, Note_on_c, 9, 51, 49
1, 16617, Note_off_c, 9, 36, 64
1, 16617, Note_off_c, 9, 44, 64
1, 16649, Control_c, 9, 4, 74
1, 16662, Note_off_c, 9, 51, 64
1, 16682, Control_c, 9, 4, 0
1, 16758, Control_c, 9, 4, 76
1, 16759, Note_on_c, 9, 44, 80
1, 16787, Note_on_c, 9, 51, 59
1, 16793, Note_on_c, 9, 38, 110
1, 16794, Control_c, 9, 4, 90
1, 16870, Note_off_c, 9, 44, 64
1, 16898, Note_off_c, 9, 51, 64
1, 16903, Note_off_c, 9, 38, 64
1, 16916, Control_c, 9, 4, 74
1, 16951, Control_c, 9, 4, 11
1, 16985, Control_c, 9, 4, 78
1, 16985, Note_on_c, 9, 44, 57
1, 17020, Control_c, 9, 4, 90
1, 17046, Note_on_c, 9, 51, 45
1, 17097, Note_off_c, 9, 44, 64
1, 17141, Control_c, 9, 4, 58
1, 17147, Note_on_c, 9, 38, 38
1, 17157, Note_off_c, 9, 51, 64
1, 17175, Control_c, 9, 4, 0
1, 17182, Note_on_c, 9, 38, 38
1, 17182, Note_off_c, 9, 38, 64
1, 17241, Note_on_c, 9, 38, 25
1, 17241, Note_off_c, 9, 38, 64
1, 17243, Control_c, 9, 4, 78
1, 17244, Note_on_c, 9, 44, 82
1, 17256, Note_on_c, 9, 36, 64
1, 17258, Note_off_c, 9, 38, 64
1, 17278, Control_c, 9, 4, 90
1, 17279, Note_on_c, 9, 51, 49
1, 17355, Note_off_c, 9, 44, 64
1, 17367, Note_off_c, 9, 36, 64
1, 17390, Note_off_c, 9, 51, 64
1, 17398, Control_c, 9, 4, 75
1, 17434, Control_c, 9, 4, 28
1, 17467, Control_c, 9, 4, 79
1, 17468, Note_on_c, 9, 44, 47
1, 17502, Control_c, 9, 4, 90
1, 17510, Note_on_c, 9, 51, 44
1, 17523, Note_on_c, 9, 36, 125
1, 17579, Note_off_c, 9, 44, 64
1, 17621, Note_off_c, 9, 51, 64
1, 17625, Control_c, 9, 4, 57
1, 17634, Note_off_c, 9, 36, 64
1, 17659, Control_c, 9, 4, 0
1, 17734, Control_c, 9, 4, 78
1, 17734, Note_on_c, 9, 44, 80
1, 17759, Note_on_c, 9, 51, 56
1, 17767, Note_on_c, 9, 38, 90
1, 17769, Control_c, 9, 4, 90
1, 17845, Note_off_c, 9, 44, 64
1, 17871, Note_off_c, 9, 51, 64
1, 17878, Note_off_c, 9, 38, 64
1, 17891, Control_c, 9, 4, 74
1, 17922, Control_c, 9, 4, 26
1, 17963, Control_c, 9, 4, 78
1, 17963, Note_on_c, 9, 44, 42
1, 17998, Control_c, 9, 4, 90
1, 18000, Note_on_c, 9, 51, 45
1, 18075, Note_off_c, 9, 44, 64
1, 18111, Note_off_c, 9, 51, 64
1, 18114, Control_c, 9, 4, 57
1, 18120, Note_on_c, 9, 38, 100
1, 18144, Control_c, 9, 4, 0
1, 18221, Control_c, 9, 4, 78
1, 18221, Note_on_c, 9, 44, 80
1, 18230, Note_off_c, 9, 38, 64
1, 18234, Note_on_c, 9, 51, 62
1, 18256, Control_c, 9, 4, 90
1, 18333, Note_off_c, 9, 44, 64
1, 18345, Note_off_c, 9, 51, 64
1, 18350, Note_on_c, 9, 38, 36
1, 18382, Control_c, 9, 4, 80
1, 18413, Control_c, 9, 4, 57
1, 18444, Control_c, 9, 4, 80
1, 18444, Note_on_c, 9, 44, 20
1, 18461, Note_off_c, 9, 38, 64
1, 18467, Note_on_c, 9, 36, 51
1, 18474, Note_on_c, 9, 51, 48
1, 18479, Control_c, 9, 4, 90
1, 18556, Note_off_c, 9, 44, 64
1, 18578, Note_off_c, 9, 36, 64
1, 18585, Note_off_c, 9, 51, 64
1, 18588, Control_c, 9, 4, 57
1, 18592, Note_on_c, 9, 36, 65
1, 18621, Control_c, 9, 4, 0
1, 18699, Control_c, 9, 4, 78
1, 18700, Note_on_c, 9, 44, 77
1, 18701, Note_on_c, 9, 38, 90
1, 18702, Note_on_c, 9, 51, 71
1, 18703, Note_off_c, 9, 36, 64
1, 18734, Control_c, 9, 4, 90
1, 18811, Note_off_c, 9, 38, 64
1, 18811, Note_off_c, 9, 44, 64
1, 18813, Note_off_c, 9, 51, 64
1, 18893, Control_c, 9, 4, 60
1, 18923, Control_c, 9, 4, 80
1, 18923, Note_on_c, 9, 44, 17
1, 18956, Note_on_c, 9, 51, 52
1, 18959, Control_c, 9, 4, 90
1, 19035, Note_off_c, 9, 44, 64
1, 19056, Note_on_c, 9, 38, 43
1, 19068, Note_off_c, 9, 51, 64
1, 19082, Control_c, 9, 4, 58
1, 19092, Note_on_c, 9, 38, 46
1, 19092, Note_off_c, 9, 38, 64
1, 19114, Control_c, 9, 4, 0
1, 19116, Note_on_c, 9, 38, 40
1, 19116, Note_off_c, 9, 38, 64
1, 19157, Note_on_c, 9, 38, 25
1, 19157, Note_off_c, 9, 38, 64
1, 19167, Note_off_c, 9, 38, 64
1, 19181, Control_c, 9, 4, 78
1, 19181, Note_on_c, 9, 44, 80
1, 19185, Note_on_c, 9, 36, 67
1, 19196, Note_on_c, 9, 51, 57
1, 19217, Control_c, 9, 4, 90
1, 19294, Note_off_c, 9, 44, 64
1, 19297, Note_off_c, 9, 36, 64
1, 19307, Note_off_c, 9, 51, 64
1, 19357, Control_c, 9, 4, 59
1, 19397, Control_c, 9, 4, 80
1, 19397, Note_on_c, 9, 44, 20
1, 19432, Control_c, 9, 4, 90
1, 19439, Note_on_c, 9, 51, 49
1, 19442, Note_on_c, 9, 36, 65
1, 19509, Note_off_c, 9, 44, 64
1, 19550, Note_off_c, 9, 51, 64
1, 19551, Control_c, 9, 4, 74
1, 19553, Note_off_c, 9, 36, 64
1, 19586, Control_c, 9, 4, 0
1, 19660, Control_c, 9, 4, 78
1, 19660, Note_on_c, 9, 44, 80
1, 19686, Note_on_c, 9, 38, 101
1, 19693, Note_on_c, 9, 51, 60
1, 19695, Control_c, 9, 4, 90
1, 19772, Note_off_c, 9, 44, 64
1, 19797, Note_off_c, 9, 38, 64
1, 19805, Note_off_c, 9, 51, 64
1, 19822, Control_c, 9, 4, 74
1, 19857, Control_c, 9, 4, 28
1, 19890, Control_c, 9, 4, 78
1, 19891, Note_on_c, 9, 44, 40
1, 19926, Control_c, 9, 4, 90
1, 19932, Note_on_c, 9, 51, 45
1, 20002, Note_off_c, 9, 44, 64
1, 20037, Note_on_c, 9, 40, 99
1, 20044, Note_off_c, 9, 51, 64
1, 20052, Control_c, 9, 4, 58
1, 20086, Control_c, 9, 4, 0
1, 20148, Control_c, 9, 4, 77
1, 20148, Note_on_c, 9, 44, 77
1, 20148, Note_off_c, 9, 40, 64
1, 20164, Note_on_c, 9, 51, 60
1, 20183, Control_c, 9, 4, 90
1, 20260, Note_off_c, 9, 44, 64
1, 20276, Note_off_c, 9, 51, 64
1, 20285, Note_on_c, 9, 38, 32
1, 20335, Control_c, 9, 4, 42
1, 20368, Control_c, 9, 4, 78
1, 20368, Note_on_c, 9, 44, 45
1, 20389, Note_on_c, 9, 36, 71
1, 20397, Note_off_c, 9, 38, 64
1, 20403, Control_c, 9, 4, 90
1, 20409, Note_on_c, 9, 51, 51
1, 20479, Note_off_c, 9, 44, 64
1, 20500, Note_off_c, 9, 36, 64
1, 20519, Control_c, 9, 4, 74
1, 20520, Note_off_c, 9, 51, 64
1, 20552, Control_c, 9, 4, 0
1, 20622, Control_c, 9, 4, 77
1, 20622, Note_on_c, 9, 44, 87
1, 20640, Note_on_c, 9, 51, 54
1, 20657, Control_c, 9, 4, 90
1, 20733, Note_off_c, 9, 44, 64
1, 20751, Note_off_c, 9, 51, 64
1, 20781, Control_c, 9, 4, 58
1, 20811, Control_c, 9, 4, 11
1, 20848, Control_c, 9, 4, 78
1, 20848, Note_on_c, 9, 44, 57
1, 20881, Note_on_c, 9, 38, 111
1, 20883, Control_c, 9, 4, 90
1, 20890, Note_on_c, 9, 51, 59
1, 20959, Note_off_c, 9, 44, 64
1, 20993, Note_off_c, 9, 38, 64
1, 20999, Control_c, 9, 4, 74
1, 21001, Note_off_c, 9, 51, 64
1, 21035, Control_c, 9, 4, 0
1, 21108, Control_c, 9, 4, 77
1, 21108, Note_on_c, 9, 44, 80
1, 21129, Note_on_c, 9, 51, 51
1, 21144, Control_c, 9, 4, 90
1, 21220, Note_off_c, 9, 44, 64
1, 21227, Note_on_c, 9, 38, 39
1, 21241, Note_off_c, 9, 51, 64
1, 21294, Control_c, 9, 4, 24
1, 21335, Control_c, 9, 4, 77
1, 21335, Note_on_c, 9, 44, 52
1, 21338, Note_off_c, 9, 38, 64
1, 21344, Note_on_c, 9, 51, 50
1, 21356, Note_on_c, 9, 36, 50
1, 21371, Control_c, 9, 4, 90
1, 21448, Note_off_c, 9, 44, 64
1, 21455, Note_off_c, 9, 51, 64
1, 21467, Note_off_c, 9, 36, 64
1, 21468, Note_on_c, 9, 51, 49
1, 21480, Note_on_c, 9, 36, 57
1, 21496, Control_c, 9, 4, 58
1, 21531, Control_c, 9, 4, 0
1, 21580, Note_off_c, 9, 51, 64
1, 21591, Note_off_c, 9, 36, 64
1, 21592, Note_on_c, 9, 38, 99
1, 21596, Note_on_c, 9, 51, 48
1, 21598, Control_c, 9, 4, 78
1, 21598, Note_on_c, 9, 44, 85
1, 21633, Control_c, 9, 4, 90
1, 21704, Note_off_c, 9, 38, 64
1, 21708, Note_off_c, 9, 44, 64
1, 21708, Note_off_c, 9, 51, 64
1, 21747, Control_c, 9, 4, 74
1, 21782, Control_c, 9, 4, 10
1, 21820, Control_c, 9, 4, 77
1, 21820, Note_on_c, 9, 44, 57
1, 21836, Note_on_c, 9, 51, 43
1, 21855, Control_c, 9, 4, 90
1, 21927, Note_on_c, 9, 38, 102
1, 21932, Note_off_c, 9, 44, 64
1, 21948, Note_off_c, 9, 51, 64
1, 21966, Control_c, 9, 4, 58
1, 21996, Control_c, 9, 4, 0
1, 22038, Note_off_c, 9, 38, 64
1, 22062, Control_c, 9, 4, 77
1, 22062, Note_on_c, 9, 44, 77
1, 22062, Note_on_c, 9, 51, 56
1, 22098, Control_c, 9, 4, 90
1, 22174, Note_off_c, 9, 44, 64
1, 22174, Note_off_c, 9, 51, 64
1, 22176, Note_on_c, 9, 38, 33
1, 22222, Control_c, 9, 4, 73
1, 22259, Control_c, 9, 4, 14
1, 22288, Note_off_c, 9, 38, 64
1, 22293, Control_c, 9, 4, 78
1, 22293, Note_on_c, 9, 44, 52
1, 22299, Note_on_c, 9, 43, 127
1, 22328, Control_c, 9, 4, 90
1, 22405, Note_off_c, 9, 44, 64
1, 22410, Note_off_c, 9, 43, 64
1, 22429, Control_c, 9, 4, 73
1, 22447, Note_on_c, 9, 38, 34
1, 22462, Control_c, 9, 4, 0
1, 22528, Control_c, 9, 4, 78
1, 22529, Note_on_c, 9, 44, 82
1, 22551, Note_on_c, 9, 51, 53
1, 22558, Note_off_c, 9, 38, 64
1, 22563, Control_c, 9, 4, 90
1, 22640, Note_off_c, 9, 44, 64
1, 22662, Note_off_c, 9, 51, 64
1, 22686, Note_on_c, 9, 36, 52
1, 22706, Control_c, 9, 4, 41
1, 22736, Control_c, 9, 4, 79
1, 22737, Note_on_c, 9, 44, 42
1, 22772, Control_c, 9, 4, 90
1, 22776, Note_on_c, 9, 51, 83
1, 22779, Note_on_c, 9, 40, 112
1, 22798, Note_off_c, 9, 36, 64
1, 22848, Note_off_c, 9, 44, 64
1, 22888, Note_off_c, 9, 51, 64
1, 22890, Note_off_c, 9, 40, 64
1, 22898, Control_c, 9, 4, 58
1, 22929, Control_c, 9, 4, 0
1, 23015, Control_c, 9, 4, 77
1, 23015, Note_on_c, 9, 44, 75
1, 23032, Note_on_c, 9, 36, 69
1, 23040, Note_on_c, 9, 51, 38
1, 23050, Control_c, 9, 4, 90
1, 23127, Note_off_c, 9, 44, 64
1, 23142, Note_on_c, 9, 38, 30
1, 23143, Note_off_c, 9, 36, 64
1, 23151, Note_off_c, 9, 51, 64
1, 23206, Control_c, 9, 4, 45
1, 23237, Control_c, 9, 4, 80
1, 23237, Note_on_c, 9, 44, 35
1, 23253, Note_off_c, 9, 38, 64
1, 23268, Note_on_c, 9, 51, 42
1, 23273, Control_c, 9, 4, 90
1, 23281, Note_on_c, 9, 36, 60
1, 23350, Note_off_c, 9, 44, 64
1, 23378, Note_off_c, 9, 51, 64
1, 23393, Note_off_c, 9, 36, 64
1, 23402, Control_c, 9, 4, 58
1, 23432, Control_c, 9, 4, 0
1, 23500, Control_c, 9, 4, 78
1, 23500, Note_on_c, 9, 44, 82
1, 23515, Note_on_c, 9, 40, 105
1, 23519, Note_on_c, 9, 51, 59
1, 23535, Control_c, 9, 4, 90
1, 23612, Note_off_c, 9, 44, 64
1, 23627, Note_off_c, 9, 40, 64
1, 23630, Note_off_c, 9, 51, 64
1, 23679, Control_c, 9, 4, 43
1, 23720, Control_c, 9, 4, 79
1, 23721, Note_on_c, 9, 44, 45
1, 23755, Control_c, 9, 4, 90
1, 23766, Note_on_c, 9, 51, 36
1, 23832, Note_off_c, 9, 44, 64
1, 23859, Note_on_c, 9, 38, 96
1, 23875, Control_c, 9, 4, 57
1, 23878, Note_off_c, 9, 51, 64
1, 23909, Control_c, 9, 4, 0
1, 23969, Control_c, 9, 4, 78
1, 23969, Note_on_c, 9, 44, 77
1, 23970, Note_off_c, 9, 38, 64
1, 24000, Note_on_c, 9, 51, 63
1, 24004, Control_c, 9, 4, 90
1, 24080, Note_off_c, 9, 44, 64
1, 24108, Note_on_c, 9, 38, 38
1, 24111, Note_off_c, 9, 51, 64
1, 24151, Control_c, 9, 4, 25
1, 24186, Control_c, 9, 4, 79
1, 24186, Note_on_c, 9, 44, 55
1, 24197, Note_on_c, 9, 36, 52
1, 24220, Note_off_c, 9, 38, 64
1, 24222, Control_c, 9, 4, 90
1, 24245, Note_on_c, 9, 51, 45
1, 24298, Note_off_c, 9, 44, 64
1, 24308, Note_off_c, 9, 36, 64
1, 24343, Note_on_c, 9, 36, 60
1, 24344, Control_c, 9, 4, 57
1, 24356, Note_off_c, 9, 51, 64
1, 24376, Control_c, 9, 4, 0
1, 24445, Control_c, 9, 4, 78
1, 24445, Note_on_c, 9, 44, 75
1, 24455, Note_off_c, 9, 36, 64
1, 24462, Note_on_c, 9, 51, 73
1, 24463, Note_on_c, 9, 40, 96
1, 24481, Control_c, 9, 4, 90
1, 24557, Note_off_c, 9, 44, 64
1, 24573, Note_off_c, 9, 51, 64
1, 24575, Note_off_c, 9, 40, 64
1, 24620, Control_c, 9, 4, 78
1, 24662, Control_c, 9, 4, 83
1, 24696, Control_c, 9, 4, 90
1, 24709, Note_on_c, 9, 51, 40
1, 24797, Note_on_c, 9, 38, 33
1, 24820, Note_off_c, 9, 51, 64
1, 24828, Control_c, 9, 4, 57
1, 24845, Note_on_c, 9, 38, 32
1, 24845, Note_off_c, 9, 38, 64
1, 24861, Control_c, 9, 4, 0
1, 24876, Note_on_c, 9, 38, 32
1, 24876, Note_off_c, 9, 38, 64
1, 24902, Note_on_c, 9, 38, 28
1, 24902, Note_off_c, 9, 38, 64
1, 24909, Note_off_c, 9, 38, 64
1, 24920, Control_c, 9, 4, 77
1, 24921, Note_on_c, 9, 44, 82
1, 24951, Note_on_c, 9, 51, 54
1, 24952, Note_on_c, 9, 36, 61
1, 24955, Control_c, 9, 4, 90
1, 25032, Note_off_c, 9, 44, 64
1, 25062, Note_off_c, 9, 36, 64
1, 25062, Note_off_c, 9, 51, 64
1, 25097, Control_c, 9, 4, 66
1, 25128, Control_c, 9, 4, 78
1, 25165, Control_c, 9, 4, 90
1, 25185, Note_on_c, 9, 51, 48
1, 25190, Note_on_c, 9, 36, 61
1, 25288, Control_c, 9, 4, 73
1, 25296, Note_off_c, 9, 51, 64
1, 25301, Note_off_c, 9, 36, 64
1, 25322, Control_c, 9, 4, 0
1, 25391, Control_c, 9, 4, 78
1, 25392, Note_on_c, 9, 44, 82
1, 25426, Control_c, 9, 4, 90
1, 25433, Note_on_c, 9, 40, 102
1, 25437, Note_on_c, 9, 51, 71
1, 25504, Note_off_c, 9, 44, 64
1, 25544, Note_off_c, 9, 40, 64
1, 25549, Note_off_c, 9, 51, 64
1, 25551, Control_c, 9, 4, 58
1, 25581, Control_c, 9, 4, 11
1, 25613, Control_c, 9, 4, 79
1, 25614, Note_on_c, 9, 44, 62
1, 25649, Control_c, 9, 4, 90
1, 25685, Note_on_c, 9, 51, 42
1, 25725, Note_off_c, 9, 44, 64
1, 25764, Control_c, 9, 4, 74
1, 25770, Note_on_c, 9, 38, 83
1, 25796, Note_off_c, 9, 51, 64
1, 25801, Control_c, 9, 4, 0
1, 25869, Control_c, 9, 4, 78
1, 25869, Note_on_c, 9, 44, 80
1, 25881, Note_off_c, 9, 38, 64
1, 25904, Control_c, 9, 4, 90
1, 25914, Note_on_c, 9, 51, 64
1, 25980, Note_off_c, 9, 44, 64
1, 26012, Note_on_c, 9, 38, 31
1, 26026, Note_off_c, 9, 51, 64
1, 26052, Control_c, 9, 4, 41
1, 26094, Control_c, 9, 4, 78
1, 26094, Note_on_c, 9, 44, 42
1, 26124, Note_off_c, 9, 38, 64
1, 26126, Note_on_c, 9, 36, 46
1, 26130, Control_c, 9, 4, 90
1, 26152, Note_on_c, 9, 51, 44
1, 26207, Note_off_c, 9, 44, 64
1, 26238, Note_off_c, 9, 36, 64
1, 26244, Control_c, 9, 4, 73
1, 26263, Note_off_c, 9, 51, 64
1, 26270, Note_on_c, 9, 36, 53
1, 26280, Control_c, 9, 4, 0
1, 26362, Control_c, 9, 4, 77
1, 26363, Note_on_c, 9, 44, 85
1, 26379, Note_on_c, 9, 51, 65
1, 26381, Note_off_c, 9, 36, 64
1, 26382, Note_on_c, 9, 38, 114
1, 26398, Control_c, 9, 4, 90
1, 26475, Note_off_c, 9, 44, 64
1, 26491, Note_off_c, 9, 51, 64
1, 26494, Note_off_c, 9, 38, 64
1, 26552, Control_c, 9, 4, 24
1, 26585, Control_c, 9, 4, 78
1, 26586, Note_on_c, 9, 44, 42
1, 26621, Control_c, 9, 4, 90
1, 26633, Note_on_c, 9, 51, 45
1, 26698, Note_off_c, 9, 44, 64
1, 26732, Control_c, 9, 4, 73
1, 26733, Note_on_c, 9, 38, 40
1, 26744, Note_off_c, 9, 51, 64
1, 26767, Control_c, 9, 4, 0
1, 26778, Note_on_c, 9, 38, 41
1, 26778, Note_off_c, 9, 38, 64
1, 26805, Note_on_c, 9, 38, 34
1, 26805, Note_off_c, 9, 38, 64
1, 26824, Note_on_c, 9, 38, 31
1, 26824, Note_off_c, 9, 38, 64
1, 26841, Control_c, 9, 4, 78
1, 26841, Note_on_c, 9, 44, 70
1, 26845, Note_off_c, 9, 38, 64
1, 26862, Note_on_c, 9, 36, 62
1, 26866, Note_on_c, 9, 51, 55
1, 26876, Control_c, 9, 4, 90
1, 26953, Note_off_c, 9, 44, 64
1, 26973, Note_off_c, 9, 36, 64
1, 26977, Note_off_c, 9, 51, 64
1, 27024, Control_c, 9, 4, 58
1, 27062, Control_c, 9, 4, 86
1, 27095, Control_c, 9, 4, 90
1, 27107, Note_on_c, 9, 36, 61
1, 27111, Note_on_c, 9, 51, 49
1, 27219, Note_off_c, 9, 36, 64
1, 27222, Note_off_c, 9, 51, 64
1, 27230, Control_c, 9, 4, 57
1, 27261, Control_c, 9, 4, 0
1, 27330, Control_c, 9, 4, 78
1, 27330, Note_on_c, 9, 44, 85
1, 27352, Note_on_c, 9, 38, 111
1, 27356, Note_on_c, 9, 51, 66
1, 27365, Control_c, 9, 4, 90
1, 27442, Note_off_c, 9, 44, 64
1, 27464, Note_off_c, 9, 38, 64
1, 27468, Note_off_c, 9, 51, 64
1, 27516, Control_c, 9, 4, 58
1, 27549, Control_c, 9, 4, 80
1, 27550, Note_on_c, 9, 44, 17
1, 27585, Control_c, 9, 4, 90
1, 27610, Note_on_c, 9, 51, 42
1, 27662, Note_off_c, 9, 44, 64
1, 27714, Control_c, 9, 4, 58
1, 27720, Note_on_c, 9, 38, 117
1, 27721, Note_off_c, 9, 51, 64
1, 27744, Control_c, 9, 4, 0
1, 27810, Control_c, 9, 4, 76
1, 27810, Note_on_c, 9, 44, 82
1, 27831, Note_off_c, 9, 38, 64
1, 27846, Control_c, 9, 4, 90
1, 27856, Note_on_c, 9, 51, 49
1, 27922, Note_off_c, 9, 44, 64
1, 27962, Note_on_c, 9, 38, 42
1, 27968, Note_off_c, 9, 51, 64
1, 27991, Control_c, 9, 4, 26
1, 28034, Control_c, 9, 4, 78
1, 28034, Note_on_c, 9, 44, 42
1, 28070, Control_c, 9, 4, 90
1, 28074, Note_off_c, 9, 38, 64
1, 28081, Note_on_c, 9, 36, 76
1, 28082, Note_on_c, 9, 51, 56
1, 28147, Note_off_c, 9, 44, 64
1, 28186, Control_c, 9, 4, 74
1, 28193, Note_off_c, 9, 36, 64
1, 28193, Note_off_c, 9, 51, 64
1, 28221, Control_c, 9, 4, 0
1, 28295, Control_c, 9, 4, 78
1, 28295, Note_on_c, 9, 44, 80
1, 28320, Note_on_c, 9, 51, 46
1, 28330, Control_c, 9, 4, 90
1, 28407, Note_off_c, 9, 44, 64
1, 28431, Note_off_c, 9, 51, 64
1, 28491, Control_c, 9, 4, 43
1, 28524, Control_c, 9, 4, 79
1, 28524, Note_on_c, 9, 44, 30
1, 28553, Note_on_c, 9, 51, 83
1, 28556, Note_on_c, 9, 38, 114
1, 28559, Control_c, 9, 4, 90
1, 28637, Note_off_c, 9, 44, 64
1, 28664, Note_off_c, 9, 51, 64
1, 28668, Note_off_c, 9, 38, 64
1, 28671, Control_c, 9, 4, 73
1, 28703, Control_c, 9, 4, 0
1, 28777, Control_c, 9, 4, 78
1, 28777, Note_on_c, 9, 44, 80
1, 28812, Control_c, 9, 4, 90
1, 28813, Note_on_c, 9, 51, 46
1, 28882, Note_on_c, 9, 38, 32
1, 28888, Note_off_c, 9, 44, 64
1, 28925, Note_off_c, 9, 51, 64
1, 28931, Control_c, 9, 4, 74
1, 28965, Control_c, 9, 4, 13
1, 28993, Note_off_c, 9, 38, 64
1, 28997, Control_c, 9, 4, 77
1, 28998, Note_on_c, 9, 44, 52
1, 29025, Note_on_c, 9, 36, 49
1, 29029, Note_on_c, 9, 51, 51
1, 29033, Control_c, 9, 4, 90
1, 29109, Note_off_c, 9, 44, 64
1, 29137, Note_off_c, 9, 36, 64
1, 29140, Note_off_c, 9, 51, 64
1, 29143, Note_on_c, 9, 36, 54
1, 29152, Note_on_c, 9, 51, 45
1, 29154, Control_c, 9, 4, 56
1, 29185, Control_c, 9, 4, 0
1, 29254, Note_off_c, 9, 36, 64
1, 29260, Control_c, 9, 4, 78
1, 29260, Note_on_c, 9, 44, 85
1, 29264, Note_off_c, 9, 51, 64
1, 29270, Note_on_c, 9, 38, 104
1, 29281, Note_on_c, 9, 51, 59
1, 29295, Control_c, 9, 4, 90
1, 29372, Note_off_c, 9, 44, 64
1, 29382, Note_off_c, 9, 38, 64
1, 29393, Note_off_c, 9, 51, 64
1, 29439, Control_c, 9, 4, 24
1, 29479, Control_c, 9, 4, 78
1, 29479, Note_on_c, 9, 44, 40
1, 29512, Note_on_c, 9, 51, 46
1, 29514, Control_c, 9, 4, 90
1, 29590, Note_off_c, 9, 44, 64
1, 29623, Note_off_c, 9, 51, 64
1, 29626, Note_on_c, 9, 38, 80
1, 29628, Control_c, 9, 4, 57
1, 29658, Control_c, 9, 4, 0
1, 29725, Control_c, 9, 4, 78
1, 29725, Note_on_c, 9, 44, 77
1, 29737, Note_off_c, 9, 38, 64
1, 29748, Note_on_c, 9, 53, 30
1, 29760, Control_c, 9, 4, 90
1, 29837, Note_off_c, 9, 44, 64
1, 29856, Note_on_c, 9, 38, 37
1, 29859, Note_off_c, 9, 53, 64
1, 29905, Control_c, 9, 4, 58
1, 29935, Control_c, 9, 4, 80
1, 29936, Note_on_c, 9, 44, 22
1, 29967, Note_on_c, 9, 52, 84
1, 29967, Note_off_c, 9, 38, 64
1, 29970, Control_c, 9, 4, 90
1, 29978, Note_on_c, 9, 36, 127
1, 30047, Note_off_c, 9, 44, 64
1, 30080, Note_off_c, 9, 52, 64
1, 30083, Control_c, 9, 4, 74
1, 30090, Note_off_c, 9, 36, 64
1, 30118, Control_c, 9, 4, 0
1, 30190, Control_c, 9, 4, 76
1, 30190, Note_on_c, 9, 44, 77
1, 30226, Control_c, 9, 4, 90
1, 30231, Note_on_c, 9, 51, 33
1, 30303, Note_off_c, 9, 44, 64
1, 30342, Note_off_c, 9, 51, 64
1, 30448, Note_on_c, 9, 38, 116
1, 30452, Note_on_c, 9, 51, 74
1, 30559, Note_off_c, 9, 38, 64
1, 30563, Note_off_c, 9, 51, 64
1, 30614, Control_c, 9, 4, 42
1, 30658, Control_c, 9, 4, 79
1, 30658, Note_on_c, 9, 44, 25
1, 30694, Control_c, 9, 4, 90
1, 30771, Note_off_c, 9, 44, 64
1, 30771, End_track
0, 0, End_of_file
