0, 0, Header, 0, 1, 480
1, 0, Start_track
1, 0, Title_t, "MIDI"
1, 0, Instrument_name_t, "Brooklyn"
1, 0, Time_signature, 4, 2, 24, 8
1, 0, Key_signature, 0, "major"
1, 0, SMPTE_offset, 33, 0, 0, 0, 0
1, 0, Tempo, 697674
1, 0, Note_on_c, 9, 42, 32
1, 0, Note_on_c, 9, 36, 60
1, 1, Note_on_c, 9, 38, 15
1, 11, Note_off_c, 9, 38, 64
1, 68, Note_off_c, 9, 42, 64
1, 70, Note_off_c, 9, 36, 64
1, 120, Control_c, 9, 4, 90
1, 120, Note_on_c, 9, 42, 18
1, 190, Note_off_c, 9, 42, 64
1, 243, Control_c, 9, 4, 90
1, 243, Note_on_c, 9, 22, 60
1, 312, Note_off_c, 9, 22, 64
1, 363, Control_c, 9, 4, 90
1, 363, Note_on_c, 9, 42, 24
1, 364, Note_on_c, 9, 36, 52
1, 433, Note_off_c, 9, 36, 64
1, 433, Note_off_c, 9, 42, 64
1, 489, Control_c, 9, 4, 90
1, 489, Note_on_c, 9, 40, 102
1, 489, Note_on_c, 9, 42, 46
1, 559, Note_off_c, 9, 40, 64
1, 559, Note_off_c, 9, 42, 64
1, 598, Control_c, 9, 4, 90
1, 598, Note_on_c, 9, 42, 28
1, 667, Note_off_c, 9, 42, 64
1, 709, Control_c, 9, 4, 90
1, 709, Note_on_c, 9, 22, 53
1, 779, Note_off_c, 9, 22, 64
1, 830, Control_c, 9, 4, 90
1, 830, Note_on_c, 9, 42, 27
1, 831, Note_on_c, 9, 38, 31
1, 899, Note_off_c, 9, 38, 64
1, 899, Note_off_c, 9, 42, 64
1, 943, Control_c, 9, 4, 90
1, 943, Note_on_c, 9, 42, 40
1, 1013, Note_off_c, 9, 42, 64
1, 1049, Note_on_c, 9, 38, 17
1, 1058, Control_c, 9, 4, 90
1, 1058, Note_on_c, 9, 42, 40
1, 1086, Note_on_c, 9, 36, 45
1, 1088, Note_on_c, 9, 38, 13
1, 1088, Note_off_c, 9, 38, 64
1, 1119, Note_off_c, 9, 38, 64
1, 1128, Note_off_c, 9, 42, 64
1, 1155, Note_off_c, 9, 36, 64
1, 1184, Control_c, 9, 4, 90
1, 1184, Note_on_c, 9, 42, 28
1, 1198, Note_on_c, 9, 36, 60
1, 1254, Note_off_c, 9, 42, 64
1, 1267, Note_off_c, 9, 36, 64
1, 1297, Control_c, 9, 4, 90
1, 1297, Note_on_c, 9, 42, 36
1, 1367, Note_off_c, 9, 42, 64
1, 1423, Control_c, 9, 4, 90
1, 1423, Note_on_c, 9, 42, 63
1, 1425, Note_on_c, 9, 40, 91
1, 1492, Note_off_c, 9, 42, 64
1, 1495, Note_off_c, 9, 40, 64
1, 1553, Control_c, 9, 4, 90
1, 1553, Note_on_c, 9, 42, 39
1, 1557, Note_on_c, 9, 36, 56
1, 1613, Note_on_c, 9, 38, 5
1, 1622, Note_off_c, 9, 42, 64
1, 1626, Note_off_c, 9, 36, 64
1, 1667, Control_c, 9, 4, 90
1, 1667, Note_on_c, 9, 42, 49
1, 1682, Note_off_c, 9, 38, 64
1, 1737, Note_off_c, 9, 42, 64
1, 1786, Control_c, 9, 4, 90
1, 1786, Note_on_c, 9, 42, 38
1, 1795, Note_on_c, 9, 38, 38
1, 1856, Note_off_c, 9, 42, 64
1, 1864, Note_off_c, 9, 38, 64
1, 1904, Note_on_c, 9, 36, 49
1, 1906, Control_c, 9, 4, 90
1, 1906, Note_on_c, 9, 42, 38
1, 1974, Note_off_c, 9, 36, 64
1, 1976, Note_off_c, 9, 42, 64
1, 2025, Control_c, 9, 4, 90
1, 2025, Note_on_c, 9, 42, 38
1, 2032, Note_on_c, 9, 38, 26
1, 2094, Note_off_c, 9, 42, 64
1, 2101, Note_off_c, 9, 38, 64
1, 2145, Control_c, 9, 4, 90
1, 2145, Note_on_c, 9, 38, 30
1, 2145, Note_on_c, 9, 42, 54
1, 2214, Note_off_c, 9, 38, 64
1, 2214, Note_off_c, 9, 42, 64
1, 2262, Control_c, 9, 4, 90
1, 2262, Note_on_c, 9, 42, 37
1, 2268, Note_on_c, 9, 36, 57
1, 2331, Note_off_c, 9, 42, 64
1, 2337, Note_off_c, 9, 36, 64
1, 2381, Note_on_c, 9, 37, 89
1, 2383, Control_c, 9, 4, 90
1, 2383, Note_on_c, 9, 42, 50
1, 2450, Note_off_c, 9, 37, 64
1, 2453, Note_off_c, 9, 42, 64
1, 2508, Control_c, 9, 4, 90
1, 2508, Note_on_c, 9, 42, 39
1, 2578, Note_off_c, 9, 42, 64
1, 2623, Control_c, 9, 4, 90
1, 2623, Note_on_c, 9, 22, 53
1, 2693, Note_off_c, 9, 22, 64
1, 2744, Control_c, 9, 4, 90
1, 2744, Note_on_c, 9, 42, 53
1, 2756, Note_on_c, 9, 38, 23
1, 2813, Note_off_c, 9, 42, 64
1, 2826, Note_off_c, 9, 38, 64
1, 2858, Control_c, 9, 4, 90
1, 2858, Note_on_c, 9, 42, 40
1, 2928, Note_off_c, 9, 42, 64
1, 2968, Note_on_c, 9, 38, 27
1, 2969, Control_c, 9, 4, 90
1, 2969, Note_on_c, 9, 42, 49
1, 2971, Note_on_c, 9, 36, 44
1, 3038, Note_off_c, 9, 38, 64
1, 3039, Note_off_c, 9, 42, 64
1, 3040, Note_off_c, 9, 36, 64
1, 3084, Control_c, 9, 4, 90
1, 3084, Note_on_c, 9, 42, 39
1, 3098, Note_on_c, 9, 36, 59
1, 3154, Note_off_c, 9, 42, 64
1, 3167, Note_off_c, 9, 36, 64
1, 3199, Control_c, 9, 4, 90
1, 3199, Note_on_c, 9, 42, 46
1, 3269, Note_off_c, 9, 42, 64
1, 3329, Control_c, 9, 4, 90
1, 3329, Note_on_c, 9, 42, 57
1, 3332, Note_on_c, 9, 40, 93
1, 3398, Note_off_c, 9, 42, 64
1, 3402, Note_off_c, 9, 40, 64
1, 3461, Note_on_c, 9, 36, 59
1, 3462, Control_c, 9, 4, 90
1, 3462, Note_on_c, 9, 42, 35
1, 3530, Note_off_c, 9, 36, 64
1, 3532, Note_off_c, 9, 42, 64
1, 3572, Control_c, 9, 4, 90
1, 3572, Note_on_c, 9, 42, 46
1, 3642, Note_off_c, 9, 42, 64
1, 3685, Note_on_c, 9, 38, 43
1, 3696, Control_c, 9, 4, 90
1, 3696, Note_on_c, 9, 42, 39
1, 3755, Note_off_c, 9, 38, 64
1, 3766, Note_off_c, 9, 42, 64
1, 3796, Note_on_c, 9, 36, 56
1, 3811, Control_c, 9, 4, 90
1, 3811, Note_on_c, 9, 42, 38
1, 3866, Note_off_c, 9, 36, 64
1, 3880, Note_off_c, 9, 42, 64
1, 3925, Control_c, 9, 4, 90
1, 3925, Note_on_c, 9, 42, 39
1, 3933, Note_on_c, 9, 38, 15
1, 3995, Note_off_c, 9, 42, 64
1, 4002, Note_off_c, 9, 38, 64
1, 4044, Note_on_c, 9, 38, 39
1, 4053, Control_c, 9, 4, 90
1, 4053, Note_on_c, 9, 42, 41
1, 4113, Note_off_c, 9, 38, 64
1, 4123, Note_off_c, 9, 42, 64
1, 4170, Control_c, 9, 4, 90
1, 4170, Note_on_c, 9, 36, 58
1, 4170, Note_on_c, 9, 42, 37
1, 4240, Note_off_c, 9, 36, 64
1, 4240, Note_off_c, 9, 42, 64
1, 4291, Note_on_c, 9, 40, 116
1, 4304, Control_c, 9, 4, 90
1, 4304, Note_on_c, 9, 42, 31
1, 4360, Note_off_c, 9, 40, 64
1, 4374, Note_off_c, 9, 42, 64
1, 4431, Control_c, 9, 4, 90
1, 4431, Note_on_c, 9, 42, 20
1, 4501, Note_off_c, 9, 42, 64
1, 4541, Control_c, 9, 4, 90
1, 4541, Note_on_c, 9, 42, 38
1, 4611, Note_off_c, 9, 42, 64
1, 4656, Note_on_c, 9, 38, 31
1, 4660, Control_c, 9, 4, 90
1, 4660, Note_on_c, 9, 42, 34
1, 4726, Note_off_c, 9, 38, 64
1, 4729, Note_off_c, 9, 42, 64
1, 4778, Control_c, 9, 4, 90
1, 4778, Note_on_c, 9, 42, 24
1, 4848, Note_off_c, 9, 42, 64
1, 4893, Control_c, 9, 4, 90
1, 4893, Note_on_c, 9, 36, 47
1, 4893, Note_on_c, 9, 42, 34
1, 4909, Note_on_c, 9, 38, 31
1, 4963, Note_off_c, 9, 36, 64
1, 4963, Note_off_c, 9, 42, 64
1, 4978, Note_off_c, 9, 38, 64
1, 5014, Control_c, 9, 4, 90
1, 5014, Note_on_c, 9, 42, 36
1, 5034, Note_on_c, 9, 36, 56
1, 5084, Note_off_c, 9, 42, 64
1, 5104, Note_off_c, 9, 36, 64
1, 5137, Control_c, 9, 4, 90
1, 5137, Note_on_c, 9, 42, 36
1, 5206, Note_off_c, 9, 42, 64
1, 5260, Note_on_c, 9, 37, 88
1, 5262, Control_c, 9, 4, 90
1, 5262, Note_on_c, 9, 42, 43
1, 5329, Note_off_c, 9, 37, 64
1, 5332, Note_off_c, 9, 42, 64
1, 5387, Control_c, 9, 4, 90
1, 5387, Note_on_c, 9, 42, 23
1, 5388, Note_on_c, 9, 36, 58
1, 5456, Note_off_c, 9, 42, 64
1, 5457, Note_off_c, 9, 36, 64
1, 5497, Control_c, 9, 4, 90
1, 5497, Note_on_c, 9, 42, 34
1, 5567, Note_off_c, 9, 42, 64
1, 5617, Control_c, 9, 4, 90
1, 5617, Note_on_c, 9, 42, 37
1, 5628, Note_on_c, 9, 38, 34
1, 5686, Note_off_c, 9, 42, 64
1, 5697, Note_off_c, 9, 38, 64
1, 5733, Note_on_c, 9, 36, 55
1, 5741, Control_c, 9, 4, 90
1, 5741, Note_on_c, 9, 42, 32
1, 5802, Note_off_c, 9, 36, 64
1, 5811, Note_off_c, 9, 42, 64
1, 5859, Control_c, 9, 4, 90
1, 5859, Note_on_c, 9, 42, 34
1, 5867, Note_on_c, 9, 38, 25
1, 5929, Note_off_c, 9, 42, 64
1, 5937, Note_off_c, 9, 38, 64
1, 5977, Note_on_c, 9, 38, 25
1, 5980, Control_c, 9, 4, 90
1, 5980, Note_on_c, 9, 42, 34
1, 6046, Note_off_c, 9, 38, 64
1, 6049, Note_off_c, 9, 42, 64
1, 6096, Note_on_c, 9, 36, 57
1, 6097, Control_c, 9, 4, 90
1, 6097, Note_on_c, 9, 42, 30
1, 6165, Note_off_c, 9, 36, 64
1, 6167, Note_off_c, 9, 42, 64
1, 6218, Note_on_c, 9, 40, 98
1, 6224, Control_c, 9, 4, 90
1, 6224, Note_on_c, 9, 42, 38
1, 6287, Note_off_c, 9, 40, 64
1, 6294, Note_off_c, 9, 42, 64
1, 6342, Control_c, 9, 4, 90
1, 6342, Note_on_c, 9, 42, 28
1, 6412, Note_off_c, 9, 42, 64
1, 6443, Note_on_c, 9, 38, 5
1, 6461, Control_c, 9, 4, 90
1, 6461, Note_on_c, 9, 42, 37
1, 6512, Note_off_c, 9, 38, 64
1, 6531, Note_off_c, 9, 42, 64
1, 6589, Control_c, 9, 4, 90
1, 6589, Note_on_c, 9, 38, 32
1, 6589, Note_on_c, 9, 42, 34
1, 6659, Note_off_c, 9, 38, 64
1, 6659, Note_off_c, 9, 42, 64
1, 6704, Control_c, 9, 4, 90
1, 6704, Note_on_c, 9, 42, 26
1, 6773, Note_off_c, 9, 42, 64
1, 6804, Note_on_c, 9, 36, 25
1, 6817, Control_c, 9, 4, 90
1, 6817, Note_on_c, 9, 42, 36
1, 6825, Note_on_c, 9, 38, 36
1, 6873, Note_off_c, 9, 36, 64
1, 6887, Note_off_c, 9, 42, 64
1, 6895, Note_off_c, 9, 38, 64
1, 6936, Note_on_c, 9, 36, 57
1, 6946, Control_c, 9, 4, 90
1, 6946, Note_on_c, 9, 42, 25
1, 7005, Note_off_c, 9, 36, 64
1, 7016, Note_off_c, 9, 42, 64
1, 7057, Control_c, 9, 4, 90
1, 7057, Note_on_c, 9, 42, 35
1, 7126, Note_off_c, 9, 42, 64
1, 7178, Note_on_c, 9, 40, 109
1, 7189, Control_c, 9, 4, 90
1, 7189, Note_on_c, 9, 42, 37
1, 7248, Note_off_c, 9, 40, 64
1, 7259, Note_off_c, 9, 42, 64
1, 7308, Control_c, 9, 4, 90
1, 7308, Note_on_c, 9, 42, 21
1, 7315, Note_on_c, 9, 36, 60
1, 7378, Note_off_c, 9, 42, 64
1, 7384, Note_off_c, 9, 36, 64
1, 7412, Note_on_c, 9, 38, 5
1, 7427, Control_c, 9, 4, 90
1, 7427, Note_on_c, 9, 42, 36
1, 7482, Note_off_c, 9, 38, 64
1, 7496, Note_off_c, 9, 42, 64
1, 7547, Control_c, 9, 4, 90
1, 7547, Note_on_c, 9, 42, 35
1, 7568, Note_on_c, 9, 38, 8
1, 7616, Note_off_c, 9, 42, 64
1, 7637, Note_off_c, 9, 38, 64
1, 7661, Note_on_c, 9, 36, 53
1, 7667, Control_c, 9, 4, 90
1, 7667, Note_on_c, 9, 42, 27
1, 7730, Note_off_c, 9, 36, 64
1, 7737, Note_off_c, 9, 42, 64
1, 7786, Control_c, 9, 4, 90
1, 7786, Note_on_c, 9, 42, 34
1, 7798, Note_on_c, 9, 38, 19
1, 7856, Note_off_c, 9, 42, 64
1, 7867, Note_off_c, 9, 38, 64
1, 7907, Control_c, 9, 4, 90
1, 7907, Note_on_c, 9, 42, 38
1, 7918, Note_on_c, 9, 38, 30
1, 7976, Note_off_c, 9, 42, 64
1, 7987, Note_off_c, 9, 38, 64
1, 8029, Control_c, 9, 4, 90
1, 8029, Note_on_c, 9, 42, 26
1, 8043, Note_on_c, 9, 36, 57
1, 8099, Note_off_c, 9, 42, 64
1, 8112, Note_off_c, 9, 36, 64
1, 8158, Note_on_c, 9, 40, 101
1, 8163, Control_c, 9, 4, 90
1, 8163, Note_on_c, 9, 42, 33
1, 8228, Note_off_c, 9, 40, 64
1, 8233, Note_off_c, 9, 42, 64
1, 8282, Control_c, 9, 4, 90
1, 8282, Note_on_c, 9, 42, 31
1, 8351, Note_off_c, 9, 42, 64
1, 8381, Note_on_c, 9, 38, 7
1, 8396, Control_c, 9, 4, 90
1, 8396, Note_on_c, 9, 42, 40
1, 8450, Note_off_c, 9, 38, 64
1, 8465, Note_off_c, 9, 42, 64
1, 8520, Control_c, 9, 4, 90
1, 8520, Note_on_c, 9, 42, 40
1, 8522, Note_on_c, 9, 38, 33
1, 8590, Note_off_c, 9, 42, 64
1, 8591, Note_off_c, 9, 38, 64
1, 8636, Control_c, 9, 4, 90
1, 8636, Note_on_c, 9, 42, 31
1, 8706, Note_off_c, 9, 42, 64
1, 8751, Control_c, 9, 4, 90
1, 8751, Note_on_c, 9, 42, 33
1, 8752, Note_on_c, 9, 38, 28
1, 8761, Note_on_c, 9, 36, 45
1, 8820, Note_off_c, 9, 38, 64
1, 8820, Note_off_c, 9, 42, 64
1, 8831, Note_off_c, 9, 36, 64
1, 8871, Control_c, 9, 4, 90
1, 8871, Note_on_c, 9, 42, 27
1, 8889, Note_on_c, 9, 36, 57
1, 8941, Note_off_c, 9, 42, 64
1, 8959, Note_off_c, 9, 36, 64
1, 8995, Control_c, 9, 4, 90
1, 8995, Note_on_c, 9, 42, 32
1, 9065, Note_off_c, 9, 42, 64
1, 9099, Note_on_c, 9, 40, 110
1, 9110, Control_c, 9, 4, 90
1, 9110, Note_on_c, 9, 42, 45
1, 9168, Note_off_c, 9, 40, 64
1, 9180, Note_off_c, 9, 42, 64
1, 9231, Control_c, 9, 4, 90
1, 9231, Note_on_c, 9, 42, 31
1, 9239, Note_on_c, 9, 36, 59
1, 9301, Note_off_c, 9, 42, 64
1, 9308, Note_off_c, 9, 36, 64
1, 9355, Control_c, 9, 4, 90
1, 9355, Note_on_c, 9, 42, 41
1, 9425, Note_off_c, 9, 42, 64
1, 9467, Note_on_c, 9, 38, 29
1, 9476, Control_c, 9, 4, 90
1, 9476, Note_on_c, 9, 42, 29
1, 9537, Note_off_c, 9, 38, 64
1, 9546, Note_off_c, 9, 42, 64
1, 9585, Note_on_c, 9, 36, 57
1, 9590, Control_c, 9, 4, 90
1, 9590, Note_on_c, 9, 42, 29
1, 9655, Note_off_c, 9, 36, 64
1, 9660, Note_off_c, 9, 42, 64
1, 9719, Control_c, 9, 4, 90
1, 9719, Note_on_c, 9, 42, 29
1, 9729, Note_on_c, 9, 38, 25
1, 9788, Note_off_c, 9, 42, 64
1, 9799, Note_off_c, 9, 38, 64
1, 9838, Control_c, 9, 4, 90
1, 9838, Note_on_c, 9, 42, 33
1, 9848, Note_on_c, 9, 38, 25
1, 9908, Note_off_c, 9, 42, 64
1, 9918, Note_off_c, 9, 38, 64
1, 9952, Control_c, 9, 4, 90
1, 9952, Note_on_c, 9, 42, 27
1, 9953, Note_on_c, 9, 36, 55
1, 10021, Note_off_c, 9, 42, 64
1, 10023, Note_off_c, 9, 36, 64
1, 10078, Note_on_c, 9, 37, 89
1, 10086, Control_c, 9, 4, 90
1, 10086, Note_on_c, 9, 42, 40
1, 10136, Note_on_c, 9, 38, 24
1, 10147, Note_off_c, 9, 37, 64
1, 10156, Note_off_c, 9, 42, 64
1, 10206, Control_c, 9, 4, 90
1, 10206, Note_on_c, 9, 42, 25
1, 10206, Note_off_c, 9, 38, 64
1, 10276, Note_off_c, 9, 42, 64
1, 10314, Note_on_c, 9, 38, 5
1, 10324, Control_c, 9, 4, 90
1, 10324, Note_on_c, 9, 42, 18
1, 10384, Note_off_c, 9, 38, 64
1, 10393, Note_off_c, 9, 42, 64
1, 10437, Note_on_c, 9, 38, 26
1, 10438, Control_c, 9, 4, 90
1, 10438, Note_on_c, 9, 42, 43
1, 10507, Note_off_c, 9, 38, 64
1, 10508, Note_off_c, 9, 42, 64
1, 10559, Control_c, 9, 4, 90
1, 10559, Note_on_c, 9, 42, 32
1, 10628, Note_off_c, 9, 42, 64
1, 10674, Control_c, 9, 4, 90
1, 10674, Note_on_c, 9, 38, 18
1, 10674, Note_on_c, 9, 42, 31
1, 10694, Note_on_c, 9, 36, 39
1, 10743, Note_off_c, 9, 38, 64
1, 10743, Note_off_c, 9, 42, 64
1, 10763, Note_off_c, 9, 36, 64
1, 10792, Control_c, 9, 4, 90
1, 10792, Note_on_c, 9, 42, 29
1, 10815, Note_on_c, 9, 36, 57
1, 10862, Note_off_c, 9, 42, 64
1, 10885, Note_off_c, 9, 36, 64
1, 10912, Control_c, 9, 4, 90
1, 10912, Note_on_c, 9, 42, 36
1, 10982, Note_off_c, 9, 42, 64
1, 11032, Note_on_c, 9, 37, 87
1, 11038, Control_c, 9, 4, 90
1, 11038, Note_on_c, 9, 42, 43
1, 11101, Note_off_c, 9, 37, 64
1, 11108, Note_off_c, 9, 42, 64
1, 11157, Control_c, 9, 4, 90
1, 11157, Note_on_c, 9, 42, 34
1, 11159, Note_on_c, 9, 36, 62
1, 11226, Note_off_c, 9, 42, 64
1, 11228, Note_off_c, 9, 36, 64
1, 11273, Control_c, 9, 4, 90
1, 11273, Note_on_c, 9, 42, 38
1, 11343, Note_off_c, 9, 42, 64
1, 11388, Control_c, 9, 4, 90
1, 11388, Note_on_c, 9, 42, 35
1, 11390, Note_on_c, 9, 38, 35
1, 11458, Note_off_c, 9, 42, 64
1, 11459, Note_off_c, 9, 38, 64
1, 11500, Note_on_c, 9, 36, 58
1, 11508, Control_c, 9, 4, 90
1, 11508, Note_on_c, 9, 42, 29
1, 11569, Note_off_c, 9, 36, 64
1, 11578, Note_off_c, 9, 42, 64
1, 11632, Control_c, 9, 4, 90
1, 11632, Note_on_c, 9, 42, 35
1, 11637, Note_on_c, 9, 38, 24
1, 11702, Note_off_c, 9, 42, 64
1, 11706, Note_off_c, 9, 38, 64
1, 11747, Note_on_c, 9, 38, 27
1, 11752, Control_c, 9, 4, 90
1, 11752, Note_on_c, 9, 42, 48
1, 11817, Note_off_c, 9, 38, 64
1, 11822, Note_off_c, 9, 42, 64
1, 11855, Note_on_c, 9, 36, 55
1, 11868, Control_c, 9, 4, 90
1, 11868, Note_on_c, 9, 42, 33
1, 11925, Note_off_c, 9, 36, 64
1, 11938, Note_off_c, 9, 42, 64
1, 11987, Note_on_c, 9, 38, 90
1, 11994, Control_c, 9, 4, 90
1, 11994, Note_on_c, 9, 42, 43
1, 12057, Note_off_c, 9, 38, 64
1, 12064, Note_off_c, 9, 42, 64
1, 12108, Control_c, 9, 4, 90
1, 12108, Note_on_c, 9, 42, 34
1, 12178, Note_off_c, 9, 42, 64
1, 12224, Control_c, 9, 4, 90
1, 12224, Note_on_c, 9, 42, 41
1, 12294, Note_off_c, 9, 42, 64
1, 12347, Note_on_c, 9, 38, 28
1, 12351, Control_c, 9, 4, 90
1, 12351, Note_on_c, 9, 42, 46
1, 12416, Note_off_c, 9, 38, 64
1, 12421, Note_off_c, 9, 42, 64
1, 12467, Control_c, 9, 4, 90
1, 12467, Note_on_c, 9, 42, 34
1, 12537, Note_off_c, 9, 42, 64
1, 12583, Note_on_c, 9, 36, 43
1, 12587, Control_c, 9, 4, 90
1, 12587, Note_on_c, 9, 42, 29
1, 12590, Note_on_c, 9, 38, 32
1, 12652, Note_off_c, 9, 36, 64
1, 12656, Note_off_c, 9, 42, 64
1, 12659, Note_off_c, 9, 38, 64
1, 12707, Note_on_c, 9, 36, 59
1, 12708, Control_c, 9, 4, 90
1, 12708, Note_on_c, 9, 42, 35
1, 12776, Note_off_c, 9, 36, 64
1, 12778, Note_off_c, 9, 42, 64
1, 12829, Control_c, 9, 4, 90
1, 12829, Note_on_c, 9, 42, 28
1, 12899, Note_off_c, 9, 42, 64
1, 12945, Note_on_c, 9, 40, 92
1, 12949, Control_c, 9, 4, 90
1, 12949, Note_on_c, 9, 42, 52
1, 13015, Note_off_c, 9, 40, 64
1, 13018, Note_off_c, 9, 42, 64
1, 13070, Note_on_c, 9, 36, 57
1, 13072, Control_c, 9, 4, 90
1, 13072, Note_on_c, 9, 42, 35
1, 13139, Note_off_c, 9, 36, 64
1, 13142, Note_off_c, 9, 42, 64
1, 13170, Note_on_c, 9, 38, 5
1, 13189, Control_c, 9, 4, 90
1, 13189, Note_on_c, 9, 42, 37
1, 13239, Note_off_c, 9, 38, 64
1, 13259, Note_off_c, 9, 42, 64
1, 13299, Note_on_c, 9, 38, 37
1, 13305, Control_c, 9, 4, 90
1, 13305, Note_on_c, 9, 42, 41
1, 13368, Note_off_c, 9, 38, 64
1, 13375, Note_off_c, 9, 42, 64
1, 13403, Note_on_c, 9, 36, 55
1, 13425, Control_c, 9, 4, 90
1, 13425, Note_on_c, 9, 42, 31
1, 13472, Note_off_c, 9, 36, 64
1, 13494, Note_off_c, 9, 42, 64
1, 13541, Control_c, 9, 4, 90
1, 13541, Note_on_c, 9, 42, 38
1, 13551, Note_on_c, 9, 38, 27
1, 13611, Note_off_c, 9, 42, 64
1, 13620, Note_off_c, 9, 38, 64
1, 13659, Control_c, 9, 4, 90
1, 13659, Note_on_c, 9, 38, 34
1, 13659, Note_on_c, 9, 42, 40
1, 13727, Note_off_c, 9, 38, 64
1, 13727, Note_off_c, 9, 42, 64
1, 13784, Note_on_c, 9, 36, 55
1, 13787, Control_c, 9, 4, 90
1, 13787, Note_on_c, 9, 42, 15
1, 13853, Note_off_c, 9, 36, 64
1, 13857, Note_off_c, 9, 42, 64
1, 13902, Note_on_c, 9, 40, 94
1, 13911, Control_c, 9, 4, 90
1, 13911, Note_on_c, 9, 42, 41
1, 13971, Note_off_c, 9, 40, 64
1, 13981, Note_off_c, 9, 42, 64
1, 14022, Control_c, 9, 4, 90
1, 14022, Note_on_c, 9, 42, 32
1, 14091, Note_off_c, 9, 42, 64
1, 14137, Control_c, 9, 4, 90
1, 14137, Note_on_c, 9, 42, 46
1, 14206, Note_off_c, 9, 42, 64
1, 14264, Control_c, 9, 4, 90
1, 14264, Note_on_c, 9, 42, 46
1, 14269, Note_on_c, 9, 38, 23
1, 14334, Note_off_c, 9, 42, 64
1, 14338, Note_off_c, 9, 38, 64
1, 14385, Control_c, 9, 4, 90
1, 14385, Note_on_c, 9, 42, 27
1, 14454, Note_off_c, 9, 42, 64
1, 14491, Note_on_c, 9, 36, 46
1, 14499, Note_on_c, 9, 38, 34
1, 14506, Control_c, 9, 4, 90
1, 14506, Note_on_c, 9, 42, 37
1, 14561, Note_off_c, 9, 36, 64
1, 14568, Note_off_c, 9, 38, 64
1, 14576, Note_off_c, 9, 42, 64
1, 14610, Note_on_c, 9, 36, 57
1, 14620, Control_c, 9, 4, 90
1, 14620, Note_on_c, 9, 42, 39
1, 14679, Note_off_c, 9, 36, 64
1, 14689, Note_off_c, 9, 42, 64
1, 14737, Control_c, 9, 4, 90
1, 14737, Note_on_c, 9, 42, 33
1, 14807, Note_off_c, 9, 42, 64
1, 14842, Note_on_c, 9, 37, 84
1, 14847, Control_c, 9, 4, 90
1, 14847, Note_on_c, 9, 42, 40
1, 14911, Note_off_c, 9, 37, 64
1, 14917, Note_off_c, 9, 42, 64
1, 14967, Note_on_c, 9, 36, 59
1, 14973, Control_c, 9, 4, 90
1, 14973, Note_on_c, 9, 42, 28
1, 15036, Note_off_c, 9, 36, 64
1, 15044, Note_off_c, 9, 42, 64
1, 15091, Control_c, 9, 4, 90
1, 15091, Note_on_c, 9, 42, 44
1, 15161, Note_off_c, 9, 42, 64
1, 15192, Note_on_c, 9, 38, 35
1, 15217, Control_c, 9, 4, 90
1, 15217, Note_on_c, 9, 42, 37
1, 15262, Note_off_c, 9, 38, 64
1, 15286, Note_off_c, 9, 42, 64
1, 15339, Control_c, 9, 4, 90
1, 15339, Note_on_c, 9, 38, 30
1, 15339, Note_on_c, 9, 42, 34
1, 15348, Note_on_c, 9, 36, 57
1, 15408, Note_off_c, 9, 38, 64
1, 15408, Note_off_c, 9, 42, 64
1, 15417, Note_off_c, 9, 36, 64
1, 15458, Control_c, 9, 4, 90
1, 15458, Note_on_c, 9, 42, 35
1, 15479, Note_on_c, 9, 38, 15
1, 15528, Note_off_c, 9, 42, 64
1, 15548, Note_off_c, 9, 38, 64
1, 15568, Note_on_c, 9, 38, 36
1, 15573, Control_c, 9, 4, 90
1, 15573, Note_on_c, 9, 42, 43
1, 15637, Note_off_c, 9, 38, 64
1, 15643, Note_off_c, 9, 42, 64
1, 15694, Control_c, 9, 4, 90
1, 15694, Note_on_c, 9, 42, 30
1, 15700, Note_on_c, 9, 36, 59
1, 15763, Note_off_c, 9, 42, 64
1, 15769, Note_off_c, 9, 36, 64
1, 15824, Note_on_c, 9, 40, 93
1, 15827, Control_c, 9, 4, 90
1, 15827, Note_on_c, 9, 42, 47
1, 15893, Note_off_c, 9, 40, 64
1, 15897, Note_off_c, 9, 42, 64
1, 15917, Note_on_c, 9, 38, 5
1, 15945, Control_c, 9, 4, 90
1, 15945, Note_on_c, 9, 42, 29
1, 15986, Note_off_c, 9, 38, 64
1, 16014, Note_off_c, 9, 42, 64
1, 16062, Control_c, 9, 4, 90
1, 16062, Note_on_c, 9, 42, 34
1, 16131, Note_off_c, 9, 42, 64
1, 16186, Control_c, 9, 4, 90
1, 16186, Note_on_c, 9, 42, 46
1, 16188, Note_on_c, 9, 38, 27
1, 16256, Note_off_c, 9, 42, 64
1, 16258, Note_off_c, 9, 38, 64
1, 16303, Control_c, 9, 4, 90
1, 16303, Note_on_c, 9, 42, 36
1, 16373, Note_off_c, 9, 42, 64
1, 16378, Note_on_c, 9, 38, 11
1, 16412, Control_c, 9, 4, 90
1, 16412, Note_on_c, 9, 42, 42
1, 16419, Note_on_c, 9, 36, 42
1, 16448, Note_off_c, 9, 38, 64
1, 16481, Note_off_c, 9, 42, 64
1, 16488, Note_off_c, 9, 36, 64
1, 16537, Control_c, 9, 4, 90
1, 16537, Note_on_c, 9, 42, 36
1, 16552, Note_on_c, 9, 36, 53
1, 16607, Note_off_c, 9, 42, 64
1, 16621, Note_off_c, 9, 36, 64
1, 16651, Control_c, 9, 4, 90
1, 16651, Note_on_c, 9, 42, 36
1, 16720, Note_off_c, 9, 42, 64
1, 16773, Control_c, 9, 4, 90
1, 16773, Note_on_c, 9, 42, 52
1, 16776, Note_on_c, 9, 37, 90
1, 16843, Note_off_c, 9, 42, 64
1, 16845, Note_off_c, 9, 37, 64
1, 16893, Note_on_c, 9, 36, 59
1, 16903, Control_c, 9, 4, 90
1, 16903, Note_on_c, 9, 42, 31
1, 16963, Note_off_c, 9, 36, 64
1, 16973, Note_off_c, 9, 42, 64
1, 17020, Control_c, 9, 4, 90
1, 17020, Note_on_c, 9, 42, 41
1, 17090, Note_off_c, 9, 42, 64
1, 17143, Control_c, 9, 4, 90
1, 17143, Note_on_c, 9, 42, 40
1, 17146, Note_on_c, 9, 38, 29
1, 17213, Note_off_c, 9, 42, 64
1, 17216, Note_off_c, 9, 38, 64
1, 17248, Note_on_c, 9, 36, 50
1, 17266, Control_c, 9, 4, 90
1, 17266, Note_on_c, 9, 42, 40
1, 17317, Note_off_c, 9, 36, 64
1, 17335, Note_off_c, 9, 42, 64
1, 17382, Control_c, 9, 4, 90
1, 17382, Note_on_c, 9, 42, 39
1, 17400, Note_on_c, 9, 38, 12
1, 17452, Note_off_c, 9, 42, 64
1, 17469, Note_off_c, 9, 38, 64
1, 17498, Control_c, 9, 4, 90
1, 17498, Note_on_c, 9, 38, 23
1, 17498, Note_on_c, 9, 42, 34
1, 17568, Note_off_c, 9, 42, 64
1, 17569, Note_off_c, 9, 38, 64
1, 17621, Control_c, 9, 4, 90
1, 17621, Note_on_c, 9, 36, 55
1, 17621, Note_on_c, 9, 42, 38
1, 17690, Note_off_c, 9, 36, 64
1, 17690, Note_off_c, 9, 42, 64
1, 17746, Note_on_c, 9, 40, 98
1, 17749, Control_c, 9, 4, 90
1, 17749, Note_on_c, 9, 42, 49
1, 17816, Note_off_c, 9, 40, 64
1, 17818, Note_off_c, 9, 42, 64
1, 17867, Control_c, 9, 4, 90
1, 17867, Note_on_c, 9, 42, 35
1, 17937, Note_off_c, 9, 42, 64
1, 17981, Control_c, 9, 4, 90
1, 17981, Note_on_c, 9, 42, 36
1, 18051, Note_off_c, 9, 42, 64
1, 18106, Control_c, 9, 4, 90
1, 18106, Note_on_c, 9, 42, 46
1, 18114, Note_on_c, 9, 38, 32
1, 18175, Note_off_c, 9, 42, 64
1, 18183, Note_off_c, 9, 38, 64
1, 18224, Control_c, 9, 4, 90
1, 18224, Note_on_c, 9, 42, 35
1, 18294, Note_off_c, 9, 42, 64
1, 18328, Note_on_c, 9, 36, 40
1, 18340, Control_c, 9, 4, 90
1, 18340, Note_on_c, 9, 42, 31
1, 18341, Note_on_c, 9, 38, 30
1, 18398, Note_off_c, 9, 36, 64
1, 18409, Note_off_c, 9, 38, 64
1, 18409, Note_off_c, 9, 42, 64
1, 18456, Note_on_c, 9, 36, 55
1, 18460, Control_c, 9, 4, 90
1, 18460, Note_on_c, 9, 42, 40
1, 18526, Note_off_c, 9, 36, 64
1, 18530, Note_off_c, 9, 42, 64
1, 18578, Control_c, 9, 4, 90
1, 18578, Note_on_c, 9, 42, 41
1, 18647, Note_off_c, 9, 42, 64
1, 18705, Control_c, 9, 4, 90
1, 18705, Note_on_c, 9, 40, 96
1, 18705, Note_on_c, 9, 42, 46
1, 18775, Note_off_c, 9, 40, 64
1, 18775, Note_off_c, 9, 42, 64
1, 18829, Note_on_c, 9, 36, 59
1, 18831, Control_c, 9, 4, 90
1, 18831, Note_on_c, 9, 42, 29
1, 18898, Note_off_c, 9, 36, 64
1, 18901, Note_off_c, 9, 42, 64
1, 18948, Control_c, 9, 4, 90
1, 18948, Note_on_c, 9, 42, 36
1, 19017, Note_off_c, 9, 42, 64
1, 19067, Control_c, 9, 4, 90
1, 19067, Note_on_c, 9, 38, 38
1, 19067, Note_on_c, 9, 42, 43
1, 19137, Note_off_c, 9, 38, 64
1, 19137, Note_off_c, 9, 42, 64
1, 19178, Note_on_c, 9, 36, 58
1, 19189, Control_c, 9, 4, 90
1, 19189, Note_on_c, 9, 42, 35
1, 19247, Note_off_c, 9, 36, 64
1, 19259, Note_off_c, 9, 42, 64
1, 19314, Control_c, 9, 4, 90
1, 19314, Note_on_c, 9, 38, 27
1, 19314, Note_on_c, 9, 42, 30
1, 19383, Note_off_c, 9, 38, 64
1, 19383, Note_off_c, 9, 42, 64
1, 19421, Note_on_c, 9, 38, 28
1, 19436, Control_c, 9, 4, 90
1, 19436, Note_on_c, 9, 42, 38
1, 19491, Note_off_c, 9, 38, 64
1, 19506, Note_off_c, 9, 42, 64
1, 19547, Note_on_c, 9, 36, 57
1, 19556, Control_c, 9, 4, 90
1, 19556, Note_on_c, 9, 42, 29
1, 19616, Note_off_c, 9, 36, 64
1, 19626, Note_off_c, 9, 42, 64
1, 19666, Note_on_c, 9, 38, 120
1, 19675, Control_c, 9, 4, 90
1, 19675, Note_on_c, 9, 42, 50
1, 19735, Note_off_c, 9, 38, 64
1, 19745, Note_off_c, 9, 42, 64
1, 19802, Control_c, 9, 4, 90
1, 19802, Note_on_c, 9, 42, 30
1, 19871, Note_off_c, 9, 42, 64
1, 19918, Control_c, 9, 4, 90
1, 19918, Note_on_c, 9, 42, 35
1, 19987, Note_off_c, 9, 42, 64
1, 20048, Note_on_c, 9, 38, 27
1, 20049, Control_c, 9, 4, 90
1, 20049, Note_on_c, 9, 42, 41
1, 20117, Note_off_c, 9, 38, 64
1, 20119, Note_off_c, 9, 42, 64
1, 20162, Control_c, 9, 4, 90
1, 20162, Note_on_c, 9, 42, 37
1, 20232, Note_off_c, 9, 42, 64
1, 20271, Note_on_c, 9, 36, 45
1, 20275, Control_c, 9, 4, 90
1, 20275, Note_on_c, 9, 42, 41
1, 20277, Note_on_c, 9, 38, 37
1, 20340, Note_off_c, 9, 36, 64
1, 20345, Note_off_c, 9, 42, 64
1, 20347, Note_off_c, 9, 38, 64
1, 20396, Control_c, 9, 4, 90
1, 20396, Note_on_c, 9, 42, 30
1, 20405, Note_on_c, 9, 36, 57
1, 20466, Note_off_c, 9, 42, 64
1, 20475, Note_off_c, 9, 36, 64
1, 20529, Control_c, 9, 4, 90
1, 20529, Note_on_c, 9, 42, 12
1, 20598, Note_off_c, 9, 42, 64
1, 20626, Note_on_c, 9, 38, 121
1, 20652, Control_c, 9, 4, 90
1, 20652, Note_on_c, 9, 42, 56
1, 20696, Note_off_c, 9, 38, 64
1, 20722, Note_off_c, 9, 42, 64
1, 20759, Control_c, 9, 4, 90
1, 20759, Note_on_c, 9, 42, 45
1, 20773, Note_on_c, 9, 36, 57
1, 20829, Note_off_c, 9, 42, 64
1, 20842, Note_off_c, 9, 36, 64
1, 20872, Control_c, 9, 4, 90
1, 20872, Note_on_c, 9, 42, 41
1, 20942, Note_off_c, 9, 42, 64
1, 20988, Note_on_c, 9, 38, 30
1, 20991, Control_c, 9, 4, 90
1, 20991, Note_on_c, 9, 42, 45
1, 21057, Note_off_c, 9, 38, 64
1, 21061, Note_off_c, 9, 42, 64
1, 21109, Note_on_c, 9, 36, 47
1, 21114, Control_c, 9, 4, 90
1, 21114, Note_on_c, 9, 42, 38
1, 21178, Note_off_c, 9, 36, 64
1, 21183, Note_off_c, 9, 42, 64
1, 21229, Note_on_c, 9, 38, 31
1, 21232, Control_c, 9, 4, 90
1, 21232, Note_on_c, 9, 42, 38
1, 21299, Note_off_c, 9, 38, 64
1, 21302, Note_off_c, 9, 42, 64
1, 21343, Note_on_c, 9, 38, 24
1, 21349, Control_c, 9, 4, 90
1, 21349, Note_on_c, 9, 42, 38
1, 21412, Note_off_c, 9, 38, 64
1, 21419, Note_off_c, 9, 42, 64
1, 21464, Control_c, 9, 4, 90
1, 21464, Note_on_c, 9, 42, 33
1, 21466, Note_on_c, 9, 36, 49
1, 21533, Note_off_c, 9, 42, 64
1, 21535, Note_off_c, 9, 36, 64
1, 21587, Control_c, 9, 4, 90
1, 21587, Note_on_c, 9, 42, 45
1, 21595, Note_on_c, 9, 40, 107
1, 21657, Note_off_c, 9, 42, 64
1, 21664, Note_off_c, 9, 40, 64
1, 21703, Control_c, 9, 4, 90
1, 21703, Note_on_c, 9, 42, 38
1, 21773, Note_off_c, 9, 42, 64
1, 21827, Control_c, 9, 4, 90
1, 21827, Note_on_c, 9, 42, 44
1, 21897, Note_off_c, 9, 42, 64
1, 21952, Control_c, 9, 4, 90
1, 21952, Note_on_c, 9, 42, 50
1, 21958, Note_on_c, 9, 38, 41
1, 22022, Note_off_c, 9, 42, 64
1, 22027, Note_off_c, 9, 38, 64
1, 22063, Control_c, 9, 4, 90
1, 22063, Note_on_c, 9, 42, 39
1, 22133, Note_off_c, 9, 42, 64
1, 22166, Note_on_c, 9, 38, 27
1, 22180, Control_c, 9, 4, 90
1, 22180, Note_on_c, 9, 42, 43
1, 22235, Note_off_c, 9, 38, 64
1, 22250, Note_off_c, 9, 42, 64
1, 22289, Note_on_c, 9, 36, 57
1, 22297, Note_on_c, 9, 26, 68
1, 22309, Control_c, 9, 4, 20
1, 22343, Control_c, 9, 4, 0
1, 22359, Note_off_c, 9, 36, 64
1, 22366, Note_off_c, 9, 26, 64
1, 22508, Control_c, 9, 4, 16
1, 22518, Note_on_c, 9, 44, 50
1, 22539, Control_c, 9, 4, 90
1, 22542, Note_on_c, 9, 37, 90
1, 22587, Note_off_c, 9, 44, 64
1, 22611, Note_off_c, 9, 37, 64
1, 22674, Note_on_c, 9, 36, 57
1, 22693, Control_c, 9, 4, 90
1, 22693, Note_on_c, 9, 42, 30
1, 22744, Note_off_c, 9, 36, 64
1, 22764, Note_off_c, 9, 42, 64
1, 22797, Control_c, 9, 4, 90
1, 22797, Note_on_c, 9, 42, 43
1, 22867, Note_off_c, 9, 42, 64
1, 22913, Note_on_c, 9, 38, 43
1, 22918, Control_c, 9, 4, 90
1, 22918, Note_on_c, 9, 42, 43
1, 22983, Note_off_c, 9, 38, 64
1, 22988, Note_off_c, 9, 42, 64
1, 23033, Note_on_c, 9, 36, 59
1, 23034, Note_on_c, 9, 38, 13
1, 23043, Control_c, 9, 4, 90
1, 23043, Note_on_c, 9, 42, 24
1, 23043, Note_off_c, 9, 38, 64
1, 23055, Note_on_c, 9, 38, 9
1, 23067, Note_off_c, 9, 38, 64
1, 23103, Note_off_c, 9, 36, 64
1, 23113, Note_off_c, 9, 42, 64
1, 23149, Control_c, 9, 4, 90
1, 23149, Note_on_c, 9, 42, 31
1, 23218, Note_off_c, 9, 42, 64
1, 23249, Note_on_c, 9, 38, 13
1, 23268, Control_c, 9, 4, 90
1, 23268, Note_on_c, 9, 22, 66
1, 23318, Note_off_c, 9, 38, 64
1, 23337, Note_off_c, 9, 22, 64
1, 23387, Control_c, 9, 4, 90
1, 23387, Note_on_c, 9, 42, 31
1, 23392, Note_on_c, 9, 36, 52
1, 23457, Note_off_c, 9, 42, 64
1, 23462, Note_off_c, 9, 36, 64
1, 23498, Note_on_c, 9, 40, 104
1, 23504, Control_c, 9, 4, 90
1, 23504, Note_on_c, 9, 42, 49
1, 23567, Note_off_c, 9, 40, 64
1, 23574, Note_off_c, 9, 42, 64
1, 23735, Control_c, 9, 4, 90
1, 23735, Note_on_c, 9, 42, 43
1, 23805, Note_off_c, 9, 42, 64
1, 23854, Control_c, 9, 4, 90
1, 23854, Note_on_c, 9, 42, 27
1, 23859, Note_on_c, 9, 38, 30
1, 23924, Note_off_c, 9, 42, 64
1, 23929, Note_off_c, 9, 38, 64
1, 23969, Control_c, 9, 4, 90
1, 23969, Note_on_c, 9, 42, 54
1, 24039, Note_off_c, 9, 42, 64
1, 24085, Note_on_c, 9, 38, 26
1, 24097, Control_c, 9, 4, 90
1, 24097, Note_on_c, 9, 42, 18
1, 24106, Note_on_c, 9, 36, 44
1, 24154, Note_off_c, 9, 38, 64
1, 24167, Note_off_c, 9, 42, 64
1, 24175, Note_off_c, 9, 36, 64
1, 24211, Note_on_c, 9, 36, 57
1, 24217, Control_c, 9, 4, 90
1, 24217, Note_on_c, 9, 42, 24
1, 24281, Note_off_c, 9, 36, 64
1, 24287, Note_off_c, 9, 42, 64
1, 24339, Control_c, 9, 4, 90
1, 24339, Note_on_c, 9, 42, 22
1, 24408, Note_off_c, 9, 42, 64
1, 24457, Note_on_c, 9, 38, 85
1, 24458, Control_c, 9, 4, 90
1, 24458, Note_on_c, 9, 42, 40
1, 24526, Note_off_c, 9, 38, 64
1, 24527, Note_off_c, 9, 42, 64
1, 24582, Note_on_c, 9, 36, 60
1, 24585, Control_c, 9, 4, 90
1, 24585, Note_on_c, 9, 42, 27
1, 24651, Note_off_c, 9, 36, 64
1, 24655, Note_off_c, 9, 42, 64
1, 24706, Control_c, 9, 4, 90
1, 24706, Note_on_c, 9, 42, 45
1, 24776, Note_off_c, 9, 42, 64
1, 24822, Note_on_c, 9, 38, 23
1, 24826, Control_c, 9, 4, 90
1, 24826, Note_on_c, 9, 42, 27
1, 24891, Note_off_c, 9, 38, 64
1, 24895, Note_off_c, 9, 42, 64
1, 24934, Note_on_c, 9, 36, 57
1, 24949, Control_c, 9, 4, 90
1, 24949, Note_on_c, 9, 42, 12
1, 25003, Note_off_c, 9, 36, 64
1, 25019, Note_off_c, 9, 42, 64
1, 25071, Note_on_c, 9, 38, 25
1, 25072, Control_c, 9, 4, 90
1, 25072, Note_on_c, 9, 42, 35
1, 25140, Note_off_c, 9, 38, 64
1, 25142, Note_off_c, 9, 42, 64
1, 25183, Note_on_c, 9, 38, 29
1, 25189, Control_c, 9, 4, 90
1, 25189, Note_on_c, 9, 42, 36
1, 25252, Note_off_c, 9, 38, 64
1, 25259, Note_off_c, 9, 42, 64
1, 25303, Control_c, 9, 4, 90
1, 25303, Note_on_c, 9, 42, 28
1, 25314, Note_on_c, 9, 36, 59
1, 25372, Note_off_c, 9, 42, 64
1, 25384, Note_off_c, 9, 36, 64
1, 25413, Note_on_c, 9, 40, 96
1, 25425, Control_c, 9, 4, 90
1, 25425, Note_on_c, 9, 42, 43
1, 25482, Note_off_c, 9, 40, 64
1, 25495, Note_off_c, 9, 42, 64
1, 25544, Control_c, 9, 4, 90
1, 25544, Note_on_c, 9, 42, 18
1, 25614, Note_off_c, 9, 42, 64
1, 25659, Control_c, 9, 4, 90
1, 25659, Note_on_c, 9, 42, 48
1, 25729, Note_off_c, 9, 42, 64
1, 25789, Control_c, 9, 4, 90
1, 25789, Note_on_c, 9, 42, 34
1, 25795, Note_on_c, 9, 38, 23
1, 25859, Note_off_c, 9, 42, 64
1, 25865, Note_off_c, 9, 38, 64
1, 25913, Control_c, 9, 4, 90
1, 25913, Note_on_c, 9, 42, 21
1, 25982, Note_off_c, 9, 42, 64
1, 26019, Note_on_c, 9, 38, 26
1, 26029, Note_on_c, 9, 36, 48
1, 26033, Control_c, 9, 4, 90
1, 26033, Note_on_c, 9, 42, 30
1, 26088, Note_off_c, 9, 38, 64
1, 26098, Note_off_c, 9, 36, 64
1, 26103, Note_off_c, 9, 42, 64
1, 26138, Note_on_c, 9, 36, 58
1, 26154, Control_c, 9, 4, 90
1, 26154, Note_on_c, 9, 42, 38
1, 26208, Note_off_c, 9, 36, 64
1, 26224, Note_off_c, 9, 42, 64
1, 26264, Control_c, 9, 4, 90
1, 26264, Note_on_c, 9, 42, 33
1, 26333, Note_off_c, 9, 42, 64
1, 26380, Note_on_c, 9, 40, 102
1, 26383, Control_c, 9, 4, 90
1, 26383, Note_on_c, 9, 42, 38
1, 26436, Note_on_c, 9, 38, 26
1, 26449, Note_off_c, 9, 40, 64
1, 26453, Note_off_c, 9, 42, 64
1, 26505, Note_off_c, 9, 38, 64
1, 26509, Control_c, 9, 4, 90
1, 26509, Note_on_c, 9, 42, 17
1, 26522, Note_on_c, 9, 36, 75
1, 26578, Note_off_c, 9, 42, 64
1, 26591, Note_off_c, 9, 36, 64
1, 26631, Control_c, 9, 4, 90
1, 26631, Note_on_c, 9, 42, 36
1, 26700, Note_off_c, 9, 42, 64
1, 26755, Control_c, 9, 4, 90
1, 26755, Note_on_c, 9, 42, 36
1, 26757, Note_on_c, 9, 38, 34
1, 26825, Note_off_c, 9, 42, 64
1, 26827, Note_off_c, 9, 38, 64
1, 26866, Note_on_c, 9, 36, 58
1, 26878, Control_c, 9, 4, 90
1, 26878, Note_on_c, 9, 42, 30
1, 26936, Note_off_c, 9, 36, 64
1, 26948, Note_off_c, 9, 42, 64
1, 26996, Note_on_c, 9, 38, 34
1, 27002, Control_c, 9, 4, 90
1, 27002, Note_on_c, 9, 42, 35
1, 27065, Note_off_c, 9, 38, 64
1, 27072, Note_off_c, 9, 42, 64
1, 27119, Control_c, 9, 4, 90
1, 27119, Note_on_c, 9, 42, 32
1, 27122, Note_on_c, 9, 38, 24
1, 27189, Note_off_c, 9, 42, 64
1, 27191, Note_off_c, 9, 38, 64
1, 27236, Note_on_c, 9, 36, 60
1, 27237, Control_c, 9, 4, 90
1, 27237, Note_on_c, 9, 42, 17
1, 27306, Note_off_c, 9, 36, 64
1, 27307, Note_off_c, 9, 42, 64
1, 27347, Note_on_c, 9, 37, 83
1, 27360, Control_c, 9, 4, 90
1, 27360, Note_on_c, 9, 42, 48
1, 27417, Note_off_c, 9, 37, 64
1, 27430, Note_off_c, 9, 42, 64
1, 27476, Control_c, 9, 4, 90
1, 27476, Note_on_c, 9, 42, 18
1, 27546, Note_off_c, 9, 42, 64
1, 27585, Control_c, 9, 4, 90
1, 27585, Note_on_c, 9, 42, 51
1, 27655, Note_off_c, 9, 42, 64
1, 27712, Note_on_c, 9, 38, 33
1, 27717, Control_c, 9, 4, 90
1, 27717, Note_on_c, 9, 42, 40
1, 27782, Note_off_c, 9, 38, 64
1, 27786, Note_off_c, 9, 42, 64
1, 27825, Control_c, 9, 4, 90
1, 27825, Note_on_c, 9, 42, 33
1, 27894, Note_off_c, 9, 42, 64
1, 27938, Note_on_c, 9, 38, 23
1, 27939, Control_c, 9, 4, 90
1, 27939, Note_on_c, 9, 42, 35
1, 27949, Note_on_c, 9, 36, 40
1, 28007, Note_off_c, 9, 38, 64
1, 28009, Note_off_c, 9, 42, 64
1, 28018, Note_off_c, 9, 36, 64
1, 28056, Control_c, 9, 4, 90
1, 28056, Note_on_c, 9, 42, 36
1, 28064, Note_on_c, 9, 36, 60
1, 28126, Note_off_c, 9, 42, 64
1, 28133, Note_off_c, 9, 36, 64
1, 28177, Control_c, 9, 4, 90
1, 28177, Note_on_c, 9, 42, 22
1, 28247, Note_off_c, 9, 42, 64
1, 28300, Note_on_c, 9, 38, 79
1, 28301, Control_c, 9, 4, 90
1, 28301, Note_on_c, 9, 42, 36
1, 28369, Note_off_c, 9, 38, 64
1, 28371, Note_off_c, 9, 42, 64
1, 28427, Control_c, 9, 4, 90
1, 28427, Note_on_c, 9, 42, 28
1, 28437, Note_on_c, 9, 36, 69
1, 28496, Note_off_c, 9, 42, 64
1, 28507, Note_off_c, 9, 36, 64
1, 28550, Control_c, 9, 4, 90
1, 28550, Note_on_c, 9, 42, 27
1, 28620, Note_off_c, 9, 42, 64
1, 28666, Control_c, 9, 4, 90
1, 28666, Note_on_c, 9, 42, 27
1, 28684, Note_on_c, 9, 38, 26
1, 28736, Note_off_c, 9, 42, 64
1, 28753, Note_off_c, 9, 38, 64
1, 28784, Note_on_c, 9, 36, 58
1, 28795, Control_c, 9, 4, 90
1, 28795, Note_on_c, 9, 42, 16
1, 28853, Note_off_c, 9, 36, 64
1, 28865, Note_off_c, 9, 42, 64
1, 28923, Control_c, 9, 4, 90
1, 28923, Note_on_c, 9, 38, 30
1, 28923, Note_on_c, 9, 42, 17
1, 28993, Note_off_c, 9, 38, 64
1, 28993, Note_off_c, 9, 42, 64
1, 29039, Note_on_c, 9, 38, 24
1, 29040, Control_c, 9, 4, 90
1, 29040, Note_on_c, 9, 42, 36
1, 29108, Note_off_c, 9, 38, 64
1, 29109, Note_off_c, 9, 42, 64
1, 29158, Note_on_c, 9, 36, 58
1, 29161, Control_c, 9, 4, 90
1, 29161, Note_on_c, 9, 42, 17
1, 29228, Note_off_c, 9, 36, 64
1, 29231, Note_off_c, 9, 42, 64
1, 29267, Note_on_c, 9, 40, 104
1, 29282, Control_c, 9, 4, 90
1, 29282, Note_on_c, 9, 42, 43
1, 29337, Note_off_c, 9, 40, 64
1, 29352, Note_off_c, 9, 42, 64
1, 29515, Control_c, 9, 4, 90
1, 29515, Note_on_c, 9, 42, 42
1, 29585, Note_off_c, 9, 42, 64
1, 29628, Note_on_c, 9, 38, 23
1, 29640, Control_c, 9, 4, 90
1, 29640, Note_on_c, 9, 42, 32
1, 29698, Note_off_c, 9, 38, 64
1, 29709, Note_off_c, 9, 42, 64
1, 29753, Control_c, 9, 4, 90
1, 29753, Note_on_c, 9, 42, 31
1, 29823, Note_off_c, 9, 42, 64
1, 29863, Note_on_c, 9, 36, 45
1, 29870, Control_c, 9, 4, 90
1, 29870, Note_on_c, 9, 38, 27
1, 29870, Note_on_c, 9, 42, 28
1, 29933, Note_off_c, 9, 36, 64
1, 29940, Note_off_c, 9, 38, 64
1, 29940, Note_off_c, 9, 42, 64
1, 29979, Note_on_c, 9, 36, 68
1, 29983, Control_c, 9, 4, 45
1, 29992, Note_on_c, 9, 46, 52
1, 30014, Control_c, 9, 4, 9
1, 30044, Control_c, 9, 4, 0
1, 30049, Note_off_c, 9, 36, 64
1, 30061, Note_off_c, 9, 46, 64
1, 30126, Control_c, 9, 4, 0
1, 30126, Note_on_c, 9, 46, 28
1, 30194, Note_on_c, 9, 44, 52
1, 30196, Note_off_c, 9, 46, 64
1, 30198, Control_c, 9, 4, 90
1, 30216, Note_on_c, 9, 40, 92
1, 30232, Control_c, 9, 4, 90
1, 30232, Note_on_c, 9, 42, 43
1, 30264, Note_off_c, 9, 44, 64
1, 30286, Note_off_c, 9, 40, 64
1, 30301, Note_off_c, 9, 42, 64
1, 30350, Control_c, 9, 4, 90
1, 30350, Note_on_c, 9, 36, 56
1, 30350, Note_on_c, 9, 42, 28
1, 30419, Note_off_c, 9, 36, 64
1, 30419, Note_off_c, 9, 42, 64
1, 30473, Control_c, 9, 4, 90
1, 30473, Note_on_c, 9, 42, 31
1, 30543, Note_off_c, 9, 42, 64
1, 30585, Note_on_c, 9, 38, 24
1, 30588, Control_c, 9, 4, 90
1, 30588, Note_on_c, 9, 42, 24
1, 30655, Note_off_c, 9, 38, 64
1, 30658, Note_off_c, 9, 42, 64
1, 30696, Note_on_c, 9, 36, 56
1, 30704, Control_c, 9, 4, 90
1, 30765, Note_off_c, 9, 36, 64
1, 30765, End_track
0, 0, End_of_file
